<svg width="28" height="27" viewBox="0 0 28 27" fill="none" xmlns="http://www.w3.org/2000/svg">
<path d="M13.9998 26.6667C6.63604 26.6667 0.666504 20.6971 0.666504 13.3333C0.666504 5.96953 6.63604 0 13.9998 0C21.3636 0 27.3332 5.96953 27.3332 13.3333C27.3332 20.6971 21.3636 26.6667 13.9998 26.6667ZM13.9998 24C19.8909 24 24.6665 19.2244 24.6665 13.3333C24.6665 7.44229 19.8909 2.66667 13.9998 2.66667C8.1088 2.66667 3.33317 7.44229 3.33317 13.3333C3.33317 19.2244 8.1088 24 13.9998 24ZM12.6665 17.3333H15.3332V20H12.6665V17.3333ZM12.6665 6.66667H15.3332V14.6667H12.6665V6.66667Z" fill="#DDCB27"/>
</svg>
