<svg width="304" height="113" viewBox="0 0 304 113" fill="none" xmlns="http://www.w3.org/2000/svg">
<path d="M152 26.6667C144.636 26.6667 138.667 20.6971 138.667 13.3333C138.667 5.96953 144.636 0 152 0C159.364 0 165.333 5.96953 165.333 13.3333C165.333 20.6971 159.364 26.6667 152 26.6667ZM152 24C157.891 24 162.667 19.2244 162.667 13.3333C162.667 7.44229 157.891 2.66667 152 2.66667C146.109 2.66667 141.333 7.44229 141.333 13.3333C141.333 19.2244 146.109 24 152 24ZM150.667 17.3333H153.333V20H150.667V17.3333ZM150.667 6.66667H153.333V14.6667H150.667V6.66667Z" fill="#DDCB27"/>
<path d="M8.8457 61.6667L13.6797 48.5222H16.043L20.8379 61.6667H18.5039L17.4102 58.3855H12.3125L11.1699 61.6667H8.8457ZM12.8789 56.5007H16.8242L14.8516 50.7488L12.8789 56.5007ZM22.5371 61.6667V52.1453H24.5488L24.5977 53.7761C24.8581 53.2488 25.2292 52.8256 25.7109 52.5066C26.1992 52.1811 26.8112 52.0183 27.5469 52.0183H27.7324V53.864H27.5078C27.0716 53.864 26.6745 53.9128 26.3164 54.0105C25.9648 54.1016 25.6523 54.2449 25.3789 54.4402C25.1055 54.629 24.8646 54.8666 24.6562 55.1531V61.6667H22.5371ZM33.4844 61.8425C32.4427 61.8425 31.5736 61.6375 30.877 61.2273C30.1868 60.8106 29.6693 60.2312 29.3242 59.489C28.9792 58.7403 28.8066 57.8744 28.8066 56.8914C28.8066 55.9018 28.9727 55.0424 29.3047 54.3132C29.6432 53.5776 30.1445 53.0079 30.8086 52.6042C31.4792 52.1941 32.3158 51.989 33.3184 51.989C34.6725 51.989 35.7402 52.3927 36.5215 53.2C37.3027 54.0072 37.6934 55.1596 37.6934 56.657C37.6934 56.7481 37.6868 56.8621 37.6738 56.9988C37.6673 57.129 37.6576 57.2234 37.6445 57.282H30.916C30.9225 57.8223 31.0104 58.3204 31.1797 58.7761C31.3555 59.2253 31.6322 59.5867 32.0098 59.8601C32.3874 60.1335 32.8789 60.2703 33.4844 60.2703C34.1354 60.2703 34.6465 60.127 35.0176 59.8406C35.3887 59.5476 35.584 59.1179 35.6035 58.5515H37.6836C37.651 59.2546 37.459 59.8536 37.1074 60.3484C36.7624 60.8367 36.2806 61.2078 35.6621 61.4617C35.0501 61.7156 34.3242 61.8425 33.4844 61.8425ZM30.9355 55.866H35.5938C35.5742 55.0977 35.3594 54.5151 34.9492 54.1179C34.5456 53.7143 34.002 53.5125 33.3184 53.5125C32.6152 53.5125 32.0553 53.7143 31.6387 54.1179C31.2285 54.5216 30.9941 55.1042 30.9355 55.866ZM43.8066 65.1628V63.4343H44.6465C45.0241 63.4343 45.3398 63.3497 45.5938 63.1804C45.8477 63.0177 46.0527 62.7442 46.209 62.3601L46.4922 61.6667L42.7422 52.1453H44.9492L47.625 59.5574L50.0566 52.1453H52.1953L48.6992 61.6667L48.2988 62.7117C48.0645 63.3367 47.804 63.825 47.5176 64.1765C47.2311 64.5346 46.8763 64.7885 46.4531 64.9382C46.0365 65.088 45.5124 65.1628 44.8809 65.1628H43.8066ZM57.5859 61.823C56.6419 61.823 55.8216 61.6309 55.125 61.2468C54.4349 60.8562 53.901 60.2963 53.5234 59.5671C53.1523 58.8315 52.9668 57.9526 52.9668 56.9304C52.9668 55.8888 53.1523 54.9968 53.5234 54.2546C53.901 53.5125 54.4349 52.946 55.125 52.5554C55.8216 52.1648 56.6419 51.9695 57.5859 51.9695C58.556 51.9695 59.3893 52.1648 60.0859 52.5554C60.7891 52.946 61.3294 53.5125 61.707 54.2546C62.0911 54.9968 62.2832 55.8888 62.2832 56.9304C62.2832 57.9526 62.0911 58.8315 61.707 59.5671C61.3294 60.2963 60.7891 60.8562 60.0859 61.2468C59.3893 61.6309 58.556 61.823 57.5859 61.823ZM57.5859 60.1824C58.224 60.1824 58.7285 60.0391 59.0996 59.7527C59.4707 59.4662 59.7344 59.0789 59.8906 58.5906C60.0469 58.0958 60.125 57.5424 60.125 56.9304C60.125 56.3054 60.0469 55.7423 59.8906 55.241C59.7344 54.7397 59.4707 54.3458 59.0996 54.0593C58.7285 53.7664 58.224 53.6199 57.5859 53.6199C56.974 53.6199 56.4889 53.7664 56.1309 54.0593C55.7728 54.3458 55.5156 54.7397 55.3594 55.241C55.2031 55.7423 55.125 56.3054 55.125 56.9304C55.125 57.5424 55.2031 58.0958 55.3594 58.5906C55.5156 59.0789 55.7728 59.4662 56.1309 59.7527C56.4889 60.0391 56.974 60.1824 57.5859 60.1824ZM67.5566 61.8035C66.5215 61.8035 65.75 61.5007 65.2422 60.8953C64.7344 60.2898 64.4805 59.4434 64.4805 58.3562V52.1453H66.5898V58.0925C66.5898 58.4701 66.6387 58.8054 66.7363 59.0984C66.834 59.3914 67.0065 59.6225 67.2539 59.7917C67.5013 59.9545 67.8431 60.0359 68.2793 60.0359C68.8913 60.0359 69.4089 59.9057 69.832 59.6453C70.2617 59.3783 70.6198 59.0626 70.9062 58.698V52.1453H73.0156V61.6667H70.9746L70.9355 60.2117C70.623 60.6088 70.1901 60.9734 69.6367 61.3054C69.0833 61.6375 68.39 61.8035 67.5566 61.8035ZM83.6406 61.8425C83.1068 61.8425 82.5924 61.7872 82.0977 61.6765C81.6094 61.5723 81.1699 61.3966 80.7793 61.1492C80.3952 60.9018 80.0892 60.573 79.8613 60.1628C79.64 59.7527 79.5293 59.2481 79.5293 58.6492H81.5215C81.5215 59.2872 81.7298 59.7332 82.1465 59.9871C82.5632 60.241 83.0677 60.3679 83.6602 60.3679C84.2201 60.3679 84.6693 60.2703 85.0078 60.075C85.3464 59.8731 85.5156 59.5411 85.5156 59.0789C85.5156 58.6687 85.3431 58.3627 84.998 58.1609C84.653 57.9591 84.0508 57.7605 83.1914 57.5652C82.4818 57.3894 81.8665 57.1876 81.3457 56.9597C80.8314 56.7319 80.4342 56.4324 80.1543 56.0613C79.8809 55.6837 79.7441 55.2019 79.7441 54.616C79.7441 54.1602 79.8451 53.7664 80.0469 53.4343C80.2552 53.1023 80.5352 52.8289 80.8867 52.614C81.2383 52.3992 81.6419 52.2397 82.0977 52.1355C82.5534 52.0313 83.0352 51.9792 83.543 51.9792C84.0312 51.9792 84.5033 52.0346 84.959 52.1453C85.4147 52.2494 85.8216 52.422 86.1797 52.6628C86.5378 52.9037 86.821 53.2195 87.0293 53.6101C87.2376 54.0007 87.3418 54.4792 87.3418 55.0457H85.3594C85.3594 54.4662 85.1803 54.0593 84.8223 53.825C84.4642 53.5841 84.0378 53.4636 83.543 53.4636C83.0221 53.4636 82.6055 53.5483 82.293 53.7175C81.987 53.8868 81.834 54.1602 81.834 54.5378C81.834 54.7527 81.9154 54.9382 82.0781 55.0945C82.2409 55.2442 82.5046 55.3842 82.8691 55.5144C83.2402 55.6381 83.735 55.7716 84.3535 55.9148C85.0176 56.071 85.5938 56.2664 86.082 56.5007C86.5703 56.7286 86.9447 57.0313 87.2051 57.4089C87.472 57.78 87.6055 58.2651 87.6055 58.864C87.6055 59.3979 87.498 59.8536 87.2832 60.2312C87.0749 60.6088 86.7884 60.9181 86.4238 61.1589C86.0592 61.3933 85.6361 61.5658 85.1543 61.6765C84.679 61.7872 84.1745 61.8425 83.6406 61.8425ZM92.8887 61.8035C91.8535 61.8035 91.082 61.5007 90.5742 60.8953C90.0664 60.2898 89.8125 59.4434 89.8125 58.3562V52.1453H91.9219V58.0925C91.9219 58.4701 91.9707 58.8054 92.0684 59.0984C92.166 59.3914 92.3385 59.6225 92.5859 59.7917C92.8333 59.9545 93.1751 60.0359 93.6113 60.0359C94.2233 60.0359 94.7409 59.9057 95.1641 59.6453C95.5938 59.3783 95.9518 59.0626 96.2383 58.698V52.1453H98.3477V61.6667H96.3066L96.2676 60.2117C95.9551 60.6088 95.5221 60.9734 94.9688 61.3054C94.4154 61.6375 93.722 61.8035 92.8887 61.8035ZM101.307 61.6667V52.1453H103.318L103.367 53.7761C103.628 53.2488 103.999 52.8256 104.48 52.5066C104.969 52.1811 105.581 52.0183 106.316 52.0183H106.502V53.864H106.277C105.841 53.864 105.444 53.9128 105.086 54.0105C104.734 54.1016 104.422 54.2449 104.148 54.4402C103.875 54.629 103.634 54.8666 103.426 55.1531V61.6667H101.307ZM112.254 61.8425C111.212 61.8425 110.343 61.6375 109.646 61.2273C108.956 60.8106 108.439 60.2312 108.094 59.489C107.749 58.7403 107.576 57.8744 107.576 56.8914C107.576 55.9018 107.742 55.0424 108.074 54.3132C108.413 53.5776 108.914 53.0079 109.578 52.6042C110.249 52.1941 111.085 51.989 112.088 51.989C113.442 51.989 114.51 52.3927 115.291 53.2C116.072 54.0072 116.463 55.1596 116.463 56.657C116.463 56.7481 116.456 56.8621 116.443 56.9988C116.437 57.129 116.427 57.2234 116.414 57.282H109.686C109.692 57.8223 109.78 58.3204 109.949 58.7761C110.125 59.2253 110.402 59.5867 110.779 59.8601C111.157 60.1335 111.648 60.2703 112.254 60.2703C112.905 60.2703 113.416 60.127 113.787 59.8406C114.158 59.5476 114.354 59.1179 114.373 58.5515H116.453C116.421 59.2546 116.229 59.8536 115.877 60.3484C115.532 60.8367 115.05 61.2078 114.432 61.4617C113.82 61.7156 113.094 61.8425 112.254 61.8425ZM109.705 55.866H114.363C114.344 55.0977 114.129 54.5151 113.719 54.1179C113.315 53.7143 112.771 53.5125 112.088 53.5125C111.385 53.5125 110.825 53.7143 110.408 54.1179C109.998 54.5216 109.764 55.1042 109.705 55.866ZM122.576 65.1628V63.4343H123.416C123.794 63.4343 124.109 63.3497 124.363 63.1804C124.617 63.0177 124.822 62.7442 124.979 62.3601L125.262 61.6667L121.512 52.1453H123.719L126.395 59.5574L128.826 52.1453H130.965L127.469 61.6667L127.068 62.7117C126.834 63.3367 126.574 63.825 126.287 64.1765C126.001 64.5346 125.646 64.7885 125.223 64.9382C124.806 65.088 124.282 65.1628 123.65 65.1628H122.576ZM136.355 61.823C135.411 61.823 134.591 61.6309 133.895 61.2468C133.204 60.8562 132.671 60.2963 132.293 59.5671C131.922 58.8315 131.736 57.9526 131.736 56.9304C131.736 55.8888 131.922 54.9968 132.293 54.2546C132.671 53.5125 133.204 52.946 133.895 52.5554C134.591 52.1648 135.411 51.9695 136.355 51.9695C137.326 51.9695 138.159 52.1648 138.855 52.5554C139.559 52.946 140.099 53.5125 140.477 54.2546C140.861 54.9968 141.053 55.8888 141.053 56.9304C141.053 57.9526 140.861 58.8315 140.477 59.5671C140.099 60.2963 139.559 60.8562 138.855 61.2468C138.159 61.6309 137.326 61.823 136.355 61.823ZM136.355 60.1824C136.993 60.1824 137.498 60.0391 137.869 59.7527C138.24 59.4662 138.504 59.0789 138.66 58.5906C138.816 58.0958 138.895 57.5424 138.895 56.9304C138.895 56.3054 138.816 55.7423 138.66 55.241C138.504 54.7397 138.24 54.3458 137.869 54.0593C137.498 53.7664 136.993 53.6199 136.355 53.6199C135.743 53.6199 135.258 53.7664 134.9 54.0593C134.542 54.3458 134.285 54.7397 134.129 55.241C133.973 55.7423 133.895 56.3054 133.895 56.9304C133.895 57.5424 133.973 58.0958 134.129 58.5906C134.285 59.0789 134.542 59.4662 134.9 59.7527C135.258 60.0391 135.743 60.1824 136.355 60.1824ZM146.326 61.8035C145.291 61.8035 144.52 61.5007 144.012 60.8953C143.504 60.2898 143.25 59.4434 143.25 58.3562V52.1453H145.359V58.0925C145.359 58.4701 145.408 58.8054 145.506 59.0984C145.604 59.3914 145.776 59.6225 146.023 59.7917C146.271 59.9545 146.613 60.0359 147.049 60.0359C147.661 60.0359 148.178 59.9057 148.602 59.6453C149.031 59.3783 149.389 59.0626 149.676 58.698V52.1453H151.785V61.6667H149.744L149.705 60.2117C149.393 60.6088 148.96 60.9734 148.406 61.3054C147.853 61.6375 147.16 61.8035 146.326 61.8035ZM160.428 61.6667L157.4 52.1453H159.568L161.609 59.3523L163.67 52.1453H165.936L168.025 59.3425L170.047 52.1453H172.078L169.061 61.6667H166.873L164.744 54.3718L162.615 61.6667H160.428ZM176.004 61.8328C175.457 61.8328 174.952 61.7319 174.49 61.53C174.035 61.3217 173.667 61.0125 173.387 60.6023C173.107 60.1856 172.967 59.6681 172.967 59.0496C172.967 58.1837 173.23 57.5294 173.758 57.0867C174.292 56.644 175.037 56.3412 175.994 56.1785C176.958 56.0157 178.084 55.9246 179.373 55.905V55.3191C179.373 54.6095 179.197 54.1212 178.846 53.8542C178.494 53.5873 178.048 53.4539 177.508 53.4539C176.922 53.4539 176.434 53.5971 176.043 53.8835C175.652 54.17 175.457 54.629 175.457 55.2605H173.455C173.455 54.4662 173.624 53.8315 173.963 53.3562C174.308 52.8744 174.783 52.5261 175.389 52.3113C176.001 52.0964 176.707 51.989 177.508 51.989C178.048 51.989 178.556 52.0378 179.031 52.1355C179.507 52.2332 179.923 52.4057 180.281 52.6531C180.646 52.894 180.929 53.2292 181.131 53.6589C181.339 54.0821 181.443 54.6257 181.443 55.2898V61.6667H179.471L179.393 60.3289C178.976 60.7976 178.488 61.1654 177.928 61.4324C177.374 61.6993 176.733 61.8328 176.004 61.8328ZM176.639 60.3289C177.212 60.3289 177.732 60.1889 178.201 59.9089C178.67 59.629 179.054 59.2872 179.354 58.8835V57.155C177.804 57.1615 176.704 57.3048 176.053 57.5847C175.402 57.8647 175.076 58.3171 175.076 58.9421C175.076 59.3848 175.213 59.7266 175.486 59.9675C175.766 60.2084 176.15 60.3289 176.639 60.3289ZM184.314 61.6667V52.1453H186.346L186.395 53.5906C186.707 53.1934 187.13 52.8321 187.664 52.5066C188.198 52.1746 188.885 52.0085 189.725 52.0085C190.734 52.0085 191.489 52.3113 191.99 52.9167C192.498 53.5157 192.752 54.3751 192.752 55.4949V61.6667H190.643V55.7781C190.643 55.3744 190.594 55.0196 190.496 54.7136C190.398 54.4011 190.232 54.1602 189.998 53.991C189.77 53.8152 189.454 53.7273 189.051 53.7273C188.439 53.7273 187.918 53.8705 187.488 54.157C187.065 54.4369 186.714 54.7559 186.434 55.114V61.6667H184.314ZM199.246 61.6667C198.38 61.6667 197.713 61.5496 197.244 61.3152C196.775 61.0743 196.45 60.7195 196.268 60.2507C196.092 59.7755 196.004 59.183 196.004 58.4734V53.8054H194.412V52.1453H196.004V49.9285H198.104V52.1453H200.32V53.8054H198.104V58.3464C198.104 58.8933 198.175 59.3067 198.318 59.5867C198.468 59.8666 198.813 60.0066 199.354 60.0066H200.32V61.6667H199.246ZM210.105 61.6667C209.24 61.6667 208.572 61.5496 208.104 61.3152C207.635 61.0743 207.309 60.7195 207.127 60.2507C206.951 59.7755 206.863 59.183 206.863 58.4734V53.8054H205.271V52.1453H206.863V49.9285H208.963V52.1453H211.18V53.8054H208.963V58.3464C208.963 58.8933 209.035 59.3067 209.178 59.5867C209.327 59.8666 209.673 60.0066 210.213 60.0066H211.18V61.6667H210.105ZM217.293 61.823C216.349 61.823 215.529 61.6309 214.832 61.2468C214.142 60.8562 213.608 60.2963 213.23 59.5671C212.859 58.8315 212.674 57.9526 212.674 56.9304C212.674 55.8888 212.859 54.9968 213.23 54.2546C213.608 53.5125 214.142 52.946 214.832 52.5554C215.529 52.1648 216.349 51.9695 217.293 51.9695C218.263 51.9695 219.096 52.1648 219.793 52.5554C220.496 52.946 221.036 53.5125 221.414 54.2546C221.798 54.9968 221.99 55.8888 221.99 56.9304C221.99 57.9526 221.798 58.8315 221.414 59.5671C221.036 60.2963 220.496 60.8562 219.793 61.2468C219.096 61.6309 218.263 61.823 217.293 61.823ZM217.293 60.1824C217.931 60.1824 218.436 60.0391 218.807 59.7527C219.178 59.4662 219.441 59.0789 219.598 58.5906C219.754 58.0958 219.832 57.5424 219.832 56.9304C219.832 56.3054 219.754 55.7423 219.598 55.241C219.441 54.7397 219.178 54.3458 218.807 54.0593C218.436 53.7664 217.931 53.6199 217.293 53.6199C216.681 53.6199 216.196 53.7664 215.838 54.0593C215.48 54.3458 215.223 54.7397 215.066 55.241C214.91 55.7423 214.832 56.3054 214.832 56.9304C214.832 57.5424 214.91 58.0958 215.066 58.5906C215.223 59.0789 215.48 59.4662 215.838 59.7527C216.196 60.0391 216.681 60.1824 217.293 60.1824ZM231.658 61.6667C230.786 61.6667 230.112 61.5496 229.637 61.3152C229.168 61.0743 228.842 60.7195 228.66 60.2507C228.484 59.7755 228.396 59.183 228.396 58.4734V48.5222H230.506V58.3464C230.506 58.8933 230.577 59.3067 230.721 59.5867C230.864 59.8601 231.206 59.9968 231.746 59.9968H232.264V61.6667H231.658ZM238.172 61.823C237.228 61.823 236.408 61.6309 235.711 61.2468C235.021 60.8562 234.487 60.2963 234.109 59.5671C233.738 58.8315 233.553 57.9526 233.553 56.9304C233.553 55.8888 233.738 54.9968 234.109 54.2546C234.487 53.5125 235.021 52.946 235.711 52.5554C236.408 52.1648 237.228 51.9695 238.172 51.9695C239.142 51.9695 239.975 52.1648 240.672 52.5554C241.375 52.946 241.915 53.5125 242.293 54.2546C242.677 54.9968 242.869 55.8888 242.869 56.9304C242.869 57.9526 242.677 58.8315 242.293 59.5671C241.915 60.2963 241.375 60.8562 240.672 61.2468C239.975 61.6309 239.142 61.823 238.172 61.823ZM238.172 60.1824C238.81 60.1824 239.314 60.0391 239.686 59.7527C240.057 59.4662 240.32 59.0789 240.477 58.5906C240.633 58.0958 240.711 57.5424 240.711 56.9304C240.711 56.3054 240.633 55.7423 240.477 55.241C240.32 54.7397 240.057 54.3458 239.686 54.0593C239.314 53.7664 238.81 53.6199 238.172 53.6199C237.56 53.6199 237.075 53.7664 236.717 54.0593C236.359 54.3458 236.102 54.7397 235.945 55.241C235.789 55.7423 235.711 56.3054 235.711 56.9304C235.711 57.5424 235.789 58.0958 235.945 58.5906C236.102 59.0789 236.359 59.4662 236.717 59.7527C237.075 60.0391 237.56 60.1824 238.172 60.1824ZM248.846 65.3484C247.765 65.3484 246.902 65.2312 246.258 64.9968C245.613 64.7625 245.148 64.45 244.861 64.0593C244.581 63.6752 244.441 63.2618 244.441 62.8191C244.441 62.2722 244.689 61.7904 245.184 61.3738C245.678 60.9506 246.45 60.6544 247.498 60.4851L247.859 59.7527H249.109C250.685 59.7527 251.821 59.9675 252.518 60.3972C253.214 60.8204 253.562 61.4747 253.562 62.3601C253.562 63.2455 253.162 63.9649 252.361 64.5183C251.561 65.0717 250.389 65.3484 248.846 65.3484ZM248.807 63.9421C249.796 63.9421 250.493 63.8087 250.896 63.5417C251.307 63.2748 251.512 62.9428 251.512 62.5457C251.512 62.3048 251.44 62.0964 251.297 61.9207C251.16 61.7514 250.916 61.6212 250.564 61.53C250.219 61.4324 249.734 61.3835 249.109 61.3835H247.527C247.176 61.4877 246.899 61.6505 246.697 61.8718C246.502 62.0997 246.404 62.3601 246.404 62.6531C246.404 62.9851 246.59 63.2813 246.961 63.5417C247.339 63.8087 247.954 63.9421 248.807 63.9421ZM247.498 61.2859C246.847 61.2143 246.326 61.0808 245.936 60.8855C245.551 60.6902 245.271 60.4688 245.096 60.2214C244.926 59.9675 244.842 59.7234 244.842 59.489C244.842 59.1244 244.982 58.8054 245.262 58.532C245.542 58.252 245.981 58.0144 246.58 57.8191L247.654 58.3171C247.309 58.4018 247.026 58.5125 246.805 58.6492C246.59 58.7859 246.482 58.9454 246.482 59.1277C246.482 59.2579 246.548 59.3686 246.678 59.4597C246.808 59.5509 247.033 59.6225 247.352 59.6746C247.671 59.7266 248.113 59.7527 248.68 59.7527L247.498 61.2859ZM248.699 58.6101C247.879 58.6101 247.179 58.4604 246.6 58.1609C246.027 57.8549 245.59 57.4545 245.291 56.9597C244.998 56.4584 244.852 55.9181 244.852 55.3386C244.852 54.7332 245.001 54.183 245.301 53.6882C245.6 53.1869 246.04 52.7898 246.619 52.4968C247.205 52.1973 247.918 52.0476 248.758 52.0476C249.617 52.0476 250.33 52.1973 250.896 52.4968C251.463 52.7898 251.886 53.1869 252.166 53.6882C252.452 54.183 252.596 54.7332 252.596 55.3386C252.596 55.9311 252.449 56.4779 252.156 56.9792C251.87 57.474 251.44 57.8712 250.867 58.1707C250.294 58.4636 249.572 58.6101 248.699 58.6101ZM248.689 57.282C249.249 57.282 249.712 57.1192 250.076 56.7937C250.441 56.4617 250.623 55.9766 250.623 55.3386C250.623 54.6746 250.451 54.1798 250.105 53.8542C249.76 53.5287 249.311 53.366 248.758 53.366C248.204 53.366 247.745 53.5352 247.381 53.8738C247.023 54.2058 246.844 54.6941 246.844 55.3386C246.844 55.9832 247.029 56.4682 247.4 56.7937C247.778 57.1192 248.208 57.282 248.689 57.282ZM251.297 53.2976L250.594 52.4968C250.854 51.8523 251.232 51.4128 251.727 51.1785C252.221 50.9441 252.833 50.8236 253.562 50.8171V52.448C253.081 52.448 252.638 52.4968 252.234 52.5945C251.837 52.6856 251.525 52.92 251.297 53.2976ZM254.637 57.741V55.9148H259.764V57.741H254.637ZM266.609 61.823C265.665 61.823 264.845 61.6309 264.148 61.2468C263.458 60.8562 262.924 60.2963 262.547 59.5671C262.176 58.8315 261.99 57.9526 261.99 56.9304C261.99 55.8888 262.176 54.9968 262.547 54.2546C262.924 53.5125 263.458 52.946 264.148 52.5554C264.845 52.1648 265.665 51.9695 266.609 51.9695C267.579 51.9695 268.413 52.1648 269.109 52.5554C269.812 52.946 270.353 53.5125 270.73 54.2546C271.115 54.9968 271.307 55.8888 271.307 56.9304C271.307 57.9526 271.115 58.8315 270.73 59.5671C270.353 60.2963 269.812 60.8562 269.109 61.2468C268.413 61.6309 267.579 61.823 266.609 61.823ZM266.609 60.1824C267.247 60.1824 267.752 60.0391 268.123 59.7527C268.494 59.4662 268.758 59.0789 268.914 58.5906C269.07 58.0958 269.148 57.5424 269.148 56.9304C269.148 56.3054 269.07 55.7423 268.914 55.241C268.758 54.7397 268.494 54.3458 268.123 54.0593C267.752 53.7664 267.247 53.6199 266.609 53.6199C265.997 53.6199 265.512 53.7664 265.154 54.0593C264.796 54.3458 264.539 54.7397 264.383 55.241C264.227 55.7423 264.148 56.3054 264.148 56.9304C264.148 57.5424 264.227 58.0958 264.383 58.5906C264.539 59.0789 264.796 59.4662 265.154 59.7527C265.512 60.0391 265.997 60.1824 266.609 60.1824ZM274.129 61.6667V53.8054H272.537V52.1453H274.129V51.7253C274.129 51.1915 274.174 50.726 274.266 50.3289C274.363 49.9252 274.529 49.5899 274.764 49.323C275.005 49.0561 275.333 48.8575 275.75 48.7273C276.173 48.5906 276.714 48.5222 277.371 48.5222H278.348V50.1042H277.479C276.938 50.1042 276.593 50.241 276.443 50.5144C276.3 50.7813 276.229 51.1882 276.229 51.7351V52.1453H278.357V53.8054H276.229V61.6667H274.129ZM280.496 61.6667V53.8054H278.904V52.1453H280.496V51.7253C280.496 51.1915 280.542 50.726 280.633 50.3289C280.73 49.9252 280.896 49.5899 281.131 49.323C281.372 49.0561 281.701 48.8575 282.117 48.7273C282.54 48.5906 283.081 48.5222 283.738 48.5222H284.715V50.1042H283.846C283.305 50.1042 282.96 50.241 282.811 50.5144C282.667 50.7813 282.596 51.1882 282.596 51.7351V52.1453H284.725V53.8054H282.596V61.6667H280.496ZM289.031 57.4089C289.031 57.3438 289.028 57.2787 289.021 57.2136C289.021 57.1485 289.021 57.0834 289.021 57.0183C289.021 56.3347 289.155 55.7748 289.422 55.3386C289.689 54.8959 290.096 54.4695 290.643 54.0593C291.176 53.6557 291.574 53.2976 291.834 52.9851C292.094 52.6661 292.225 52.2755 292.225 51.8132C292.225 51.3119 292.055 50.9018 291.717 50.5828C291.378 50.2638 290.861 50.1042 290.164 50.1042C289.441 50.1042 288.882 50.2898 288.484 50.6609C288.087 51.0255 287.885 51.5431 287.879 52.2136H285.73C285.73 51.3998 285.916 50.7097 286.287 50.1433C286.658 49.5704 287.176 49.1342 287.84 48.8347C288.504 48.5352 289.279 48.3855 290.164 48.3855C291.03 48.3855 291.785 48.5222 292.43 48.7957C293.074 49.0626 293.576 49.4532 293.934 49.9675C294.292 50.4753 294.471 51.0906 294.471 51.8132C294.471 52.3471 294.383 52.8093 294.207 53.2C294.031 53.5841 293.784 53.9324 293.465 54.2449C293.152 54.5509 292.775 54.8569 292.332 55.1628C291.987 55.4167 291.72 55.6544 291.531 55.8757C291.342 56.0906 291.209 56.3217 291.131 56.5691C291.053 56.81 291.001 57.0899 290.975 57.4089H289.031ZM290.037 61.7839C289.614 61.7839 289.266 61.6472 288.992 61.3738C288.725 61.1003 288.592 60.7651 288.592 60.3679C288.592 59.9578 288.725 59.6225 288.992 59.3621C289.266 59.1016 289.614 58.9714 290.037 58.9714C290.46 58.9714 290.809 59.1016 291.082 59.3621C291.355 59.6225 291.492 59.9578 291.492 60.3679C291.492 60.7651 291.355 61.1003 291.082 61.3738C290.809 61.6472 290.46 61.7839 290.037 61.7839Z" fill="#585A61"/>
<path d="M10.6992 92.6667V89.1189L7.56837 83.4656H9.31154L11.5127 87.6833L13.7002 83.4656H15.4434L12.3057 89.1189V92.6667H10.6992ZM18.3692 92.7761C17.7083 92.7761 17.1341 92.6417 16.6465 92.3728C16.1634 92.0994 15.7897 91.7074 15.5254 91.197C15.2656 90.682 15.1358 90.0668 15.1358 89.3513C15.1358 88.6222 15.2656 87.9978 15.5254 87.4783C15.7897 86.9587 16.1634 86.5623 16.6465 86.2888C17.1341 86.0154 17.7083 85.8787 18.3692 85.8787C19.0482 85.8787 19.6315 86.0154 20.1192 86.2888C20.6113 86.5623 20.9896 86.9587 21.2539 87.4783C21.5228 87.9978 21.6572 88.6222 21.6572 89.3513C21.6572 90.0668 21.5228 90.682 21.2539 91.197C20.9896 91.7074 20.6113 92.0994 20.1192 92.3728C19.6315 92.6417 19.0482 92.7761 18.3692 92.7761ZM18.3692 91.6277C18.8158 91.6277 19.169 91.5274 19.4287 91.3269C19.6885 91.1264 19.8731 90.8552 19.9824 90.5134C20.0918 90.1671 20.1465 89.7797 20.1465 89.3513C20.1465 88.9138 20.0918 88.5196 19.9824 88.1687C19.8731 87.8178 19.6885 87.5421 19.4287 87.3416C19.169 87.1365 18.8158 87.0339 18.3692 87.0339C17.9408 87.0339 17.6013 87.1365 17.3506 87.3416C17.0999 87.5421 16.9199 87.8178 16.8106 88.1687C16.7012 88.5196 16.6465 88.9138 16.6465 89.3513C16.6465 89.7797 16.7012 90.1671 16.8106 90.5134C16.9199 90.8552 17.0999 91.1264 17.3506 91.3269C17.6013 91.5274 17.9408 91.6277 18.3692 91.6277ZM25.3486 92.7625C24.624 92.7625 24.084 92.5505 23.7285 92.1267C23.3731 91.7029 23.1953 91.1104 23.1953 90.3494V86.0017H24.6719V90.1648C24.6719 90.4291 24.7061 90.6638 24.7744 90.8689C24.8428 91.074 24.9636 91.2358 25.1367 91.3542C25.3099 91.4682 25.5492 91.5251 25.8545 91.5251C26.2829 91.5251 26.6452 91.434 26.9414 91.2517C27.2422 91.0649 27.4929 90.8438 27.6934 90.5886V86.0017H29.1699V92.6667H27.7412L27.7139 91.6482C27.4951 91.9262 27.1921 92.1814 26.8047 92.4138C26.4173 92.6462 25.932 92.7625 25.3486 92.7625ZM34.085 92.6667V86.0017H35.5069L35.541 87.0134C35.7507 86.7354 36.0446 86.4825 36.4229 86.2546C36.8057 86.0222 37.2796 85.906 37.8447 85.906C38.5511 85.906 39.0752 86.1202 39.417 86.5486C39.7588 86.977 39.9297 87.5763 39.9297 88.3464V92.6667H38.4463V88.5447C38.4463 88.2621 38.4121 88.0138 38.3438 87.7996C38.28 87.5808 38.166 87.4122 38.002 87.2937C37.8425 87.1707 37.6192 87.1091 37.332 87.1091C36.9219 87.1091 36.5733 87.2094 36.2861 87.4099C35.999 87.6059 35.7598 87.8292 35.5684 88.0798V92.6667H34.085ZM42.8008 92.6667V88.5447C42.8008 88.2621 42.7666 88.0138 42.6983 87.7996C42.6345 87.5808 42.5205 87.4122 42.3565 87.2937C42.197 87.1707 41.9736 87.1091 41.6865 87.1091C41.2764 87.1091 40.9277 87.2048 40.6406 87.3962C40.3535 87.5831 40.1074 87.8018 39.9024 88.0525L39.7041 87.0681C39.9776 86.7719 40.3194 86.5053 40.7295 86.2683C41.1442 86.0268 41.6341 85.906 42.1992 85.906C42.9011 85.906 43.4229 86.1202 43.7647 86.5486C44.1065 86.977 44.2774 87.5763 44.2774 88.3464V92.6667H42.8008ZM48.0508 92.783C47.668 92.783 47.3148 92.7123 46.9912 92.571C46.6722 92.4252 46.4147 92.2087 46.2188 91.9216C46.0228 91.63 45.9248 91.2677 45.9248 90.8347C45.9248 90.2286 46.1094 89.7706 46.4785 89.4607C46.8522 89.1508 47.374 88.9389 48.044 88.825C48.7184 88.711 49.5068 88.6472 50.4092 88.6335V88.2234C50.4092 87.7266 50.2861 87.3848 50.0401 87.198C49.794 87.0111 49.4818 86.9177 49.1035 86.9177C48.6934 86.9177 48.3516 87.018 48.0781 87.2185C47.8047 87.419 47.668 87.7403 47.668 88.1824H46.2666C46.2666 87.6264 46.3851 87.182 46.6221 86.8494C46.8636 86.5121 47.1963 86.2683 47.6201 86.1179C48.0485 85.9675 48.543 85.8923 49.1035 85.8923C49.4818 85.8923 49.8373 85.9265 50.1699 85.9949C50.5026 86.0632 50.7943 86.184 51.0449 86.3572C51.3001 86.5258 51.4984 86.7605 51.6397 87.0613C51.7855 87.3575 51.8584 87.738 51.8584 88.2029V92.6667H50.4776L50.4229 91.7302C50.1312 92.0583 49.7894 92.3158 49.3975 92.5027C49.0101 92.6895 48.5612 92.783 48.0508 92.783ZM48.4951 91.7302C48.8962 91.7302 49.2608 91.6322 49.5889 91.4363C49.917 91.2403 50.1859 91.0011 50.3955 90.7185V89.5085C49.3109 89.5131 48.5407 89.6134 48.085 89.8093C47.6292 90.0053 47.4014 90.322 47.4014 90.7595C47.4014 91.0694 47.4971 91.3087 47.6885 91.4773C47.8845 91.6459 48.1533 91.7302 48.4951 91.7302ZM53.5401 95.114V93.9041H54.1279C54.3923 93.9041 54.6133 93.8448 54.791 93.7263C54.9688 93.6124 55.1123 93.421 55.2217 93.1521L55.4199 92.6667L52.7949 86.0017H54.3399L56.2129 91.1902L57.9151 86.0017H59.4121L56.9649 92.6667L56.6846 93.3982C56.5205 93.8357 56.3382 94.1775 56.1377 94.4236C55.9372 94.6742 55.6888 94.852 55.3926 94.9568C55.1009 95.0616 54.7341 95.114 54.292 95.114H53.5401ZM65.5029 92.6667C64.8923 92.6667 64.4206 92.5847 64.0879 92.4207C63.7598 92.252 63.5319 92.0037 63.4043 91.6755C63.2813 91.3429 63.2197 90.9281 63.2197 90.4314V83.4656H64.6963V90.3425C64.6963 90.7253 64.7464 91.0147 64.8467 91.2107C64.947 91.4021 65.1862 91.4978 65.5645 91.4978H65.9268V92.6667H65.5029ZM70.0625 92.7761C69.4017 92.7761 68.8275 92.6417 68.3399 92.3728C67.8568 92.0994 67.4831 91.7074 67.2188 91.197C66.959 90.682 66.8291 90.0668 66.8291 89.3513C66.8291 88.6222 66.959 87.9978 67.2188 87.4783C67.4831 86.9587 67.8568 86.5623 68.3399 86.2888C68.8275 86.0154 69.4017 85.8787 70.0625 85.8787C70.7416 85.8787 71.3249 86.0154 71.8125 86.2888C72.3047 86.5623 72.683 86.9587 72.9473 87.4783C73.2162 87.9978 73.3506 88.6222 73.3506 89.3513C73.3506 90.0668 73.2162 90.682 72.9473 91.197C72.683 91.7074 72.3047 92.0994 71.8125 92.3728C71.3249 92.6417 70.7416 92.7761 70.0625 92.7761ZM70.0625 91.6277C70.5091 91.6277 70.8623 91.5274 71.1221 91.3269C71.3819 91.1264 71.5664 90.8552 71.6758 90.5134C71.7852 90.1671 71.8399 89.7797 71.8399 89.3513C71.8399 88.9138 71.7852 88.5196 71.6758 88.1687C71.5664 87.8178 71.3819 87.5421 71.1221 87.3416C70.8623 87.1365 70.5091 87.0339 70.0625 87.0339C69.6341 87.0339 69.2946 87.1365 69.044 87.3416C68.7933 87.5421 68.6133 87.8178 68.5039 88.1687C68.3945 88.5196 68.3399 88.9138 68.3399 89.3513C68.3399 89.7797 68.3945 90.1671 68.5039 90.5134C68.6133 90.8552 68.7933 91.1264 69.044 91.3269C69.2946 91.5274 69.6341 91.6277 70.0625 91.6277ZM77.4727 92.7898C77.099 92.7898 76.7389 92.7511 76.3926 92.6736C76.0508 92.6007 75.7432 92.4776 75.4697 92.3044C75.2009 92.1313 74.9867 91.9011 74.8272 91.614C74.6722 91.3269 74.5947 90.9737 74.5947 90.5544H75.9893C75.9893 91.0011 76.1351 91.3132 76.4268 91.491C76.7184 91.6687 77.0716 91.7576 77.4863 91.7576C77.8783 91.7576 78.1927 91.6892 78.4297 91.5525C78.6667 91.4112 78.7852 91.1788 78.7852 90.8552C78.7852 90.5681 78.6644 90.3539 78.4229 90.2126C78.1813 90.0714 77.7598 89.9324 77.1582 89.7957C76.6615 89.6726 76.2308 89.5313 75.8662 89.3718C75.5062 89.2123 75.2282 89.0027 75.0322 88.7429C74.8408 88.4786 74.7451 88.1414 74.7451 87.7312C74.7451 87.4122 74.8158 87.1365 74.957 86.9041C75.1029 86.6716 75.2988 86.4802 75.5449 86.3298C75.791 86.1794 76.0736 86.0678 76.3926 85.9949C76.7116 85.922 77.0488 85.8855 77.4043 85.8855C77.7461 85.8855 78.0765 85.9242 78.3955 86.0017C78.7145 86.0746 78.9994 86.1954 79.25 86.364C79.5007 86.5326 79.6989 86.7537 79.8447 87.0271C79.9906 87.3005 80.0635 87.6355 80.0635 88.032H78.6758C78.6758 87.6264 78.5505 87.3416 78.2998 87.1775C78.0492 87.0089 77.7507 86.9246 77.4043 86.9246C77.0397 86.9246 76.7481 86.9838 76.5293 87.1023C76.3151 87.2208 76.208 87.4122 76.208 87.6765C76.208 87.8269 76.265 87.9568 76.3789 88.0662C76.4928 88.171 76.6774 88.269 76.9326 88.3601C77.1924 88.4467 77.5387 88.5401 77.9717 88.6404C78.4365 88.7498 78.8399 88.8865 79.1816 89.0505C79.5234 89.21 79.7855 89.422 79.9678 89.6863C80.1546 89.946 80.2481 90.2856 80.2481 90.7048C80.2481 91.0785 80.1729 91.3975 80.0225 91.6619C79.8766 91.9262 79.6761 92.1427 79.4209 92.3113C79.1657 92.4753 78.8695 92.5961 78.5322 92.6736C78.1996 92.7511 77.8464 92.7898 77.4727 92.7898ZM84.7734 92.7898C84.0443 92.7898 83.4359 92.6462 82.9482 92.3591C82.4652 92.0675 82.1029 91.6619 81.8613 91.1423C81.6198 90.6182 81.499 90.0121 81.499 89.324C81.499 88.6313 81.6152 88.0297 81.8477 87.5193C82.0846 87.0043 82.4356 86.6056 82.9004 86.323C83.3698 86.0359 83.9554 85.8923 84.6572 85.8923C85.6052 85.8923 86.3525 86.1749 86.8994 86.74C87.4463 87.3051 87.7197 88.1117 87.7197 89.1599C87.7197 89.2237 87.7152 89.3035 87.7061 89.3992C87.7015 89.4903 87.6947 89.5564 87.6856 89.5974H82.9756C82.9802 89.9757 83.0417 90.3243 83.1602 90.6433C83.2832 90.9578 83.4769 91.2107 83.7412 91.4021C84.0055 91.5935 84.3496 91.6892 84.7734 91.6892C85.2292 91.6892 85.5869 91.5889 85.8467 91.3884C86.1065 91.1833 86.2432 90.8826 86.2568 90.4861H87.7129C87.6901 90.9783 87.5557 91.3975 87.3096 91.7439C87.068 92.0857 86.7308 92.3455 86.2979 92.5232C85.8695 92.7009 85.3613 92.7898 84.7734 92.7898ZM82.9893 88.6062H86.25C86.2363 88.0684 86.0859 87.6606 85.7988 87.3826C85.5163 87.1 85.1357 86.9587 84.6572 86.9587C84.165 86.9587 83.7731 87.1 83.4815 87.3826C83.1943 87.6651 83.0303 88.073 82.9893 88.6062ZM94.3779 92.7625C93.6533 92.7625 93.1133 92.5505 92.7578 92.1267C92.4024 91.7029 92.2246 91.1104 92.2246 90.3494V86.0017H93.7012V90.1648C93.7012 90.4291 93.7354 90.6638 93.8037 90.8689C93.8721 91.074 93.9928 91.2358 94.166 91.3542C94.3392 91.4682 94.5785 91.5251 94.8838 91.5251C95.3122 91.5251 95.6745 91.434 95.9707 91.2517C96.2715 91.0649 96.5221 90.8438 96.7227 90.5886V86.0017H98.1992V92.6667H96.7705L96.7432 91.6482C96.5244 91.9262 96.2214 92.1814 95.834 92.4138C95.4466 92.6462 94.9613 92.7625 94.3779 92.7625ZM100.271 92.6667V86.0017H101.692L101.727 87.0134C101.945 86.7354 102.242 86.4825 102.615 86.2546C102.989 86.0222 103.47 85.906 104.058 85.906C104.764 85.906 105.293 86.1179 105.644 86.5417C105.999 86.961 106.177 87.5626 106.177 88.3464V92.6667H104.7V88.5447C104.7 88.2621 104.666 88.0138 104.598 87.7996C104.529 87.5808 104.413 87.4122 104.249 87.2937C104.09 87.1707 103.868 87.1091 103.586 87.1091C103.158 87.1091 102.793 87.2094 102.492 87.4099C102.196 87.6059 101.95 87.8292 101.754 88.0798V92.6667H100.271ZM110.709 92.7898C110.335 92.7898 109.975 92.7511 109.629 92.6736C109.287 92.6007 108.979 92.4776 108.706 92.3044C108.437 92.1313 108.223 91.9011 108.063 91.614C107.909 91.3269 107.831 90.9737 107.831 90.5544H109.226C109.226 91.0011 109.371 91.3132 109.663 91.491C109.955 91.6687 110.308 91.7576 110.723 91.7576C111.115 91.7576 111.429 91.6892 111.666 91.5525C111.903 91.4112 112.021 91.1788 112.021 90.8552C112.021 90.5681 111.901 90.3539 111.659 90.2126C111.418 90.0714 110.996 89.9324 110.395 89.7957C109.898 89.6726 109.467 89.5313 109.103 89.3718C108.743 89.2123 108.465 89.0027 108.269 88.7429C108.077 88.4786 107.981 88.1414 107.981 87.7312C107.981 87.4122 108.052 87.1365 108.193 86.9041C108.339 86.6716 108.535 86.4802 108.781 86.3298C109.027 86.1794 109.31 86.0678 109.629 85.9949C109.948 85.922 110.285 85.8855 110.641 85.8855C110.982 85.8855 111.313 85.9242 111.632 86.0017C111.951 86.0746 112.236 86.1954 112.486 86.364C112.737 86.5326 112.935 86.7537 113.081 87.0271C113.227 87.3005 113.3 87.6355 113.3 88.032H111.912C111.912 87.6264 111.787 87.3416 111.536 87.1775C111.285 87.0089 110.987 86.9246 110.641 86.9246C110.276 86.9246 109.984 86.9838 109.766 87.1023C109.551 87.2208 109.444 87.4122 109.444 87.6765C109.444 87.8269 109.501 87.9568 109.615 88.0662C109.729 88.171 109.914 88.269 110.169 88.3601C110.429 88.4467 110.775 88.5401 111.208 88.6404C111.673 88.7498 112.076 88.8865 112.418 89.0505C112.76 89.21 113.022 89.422 113.204 89.6863C113.391 89.946 113.484 90.2856 113.484 90.7048C113.484 91.0785 113.409 91.3975 113.259 91.6619C113.113 91.9262 112.912 92.1427 112.657 92.3113C112.402 92.4753 112.106 92.5961 111.769 92.6736C111.436 92.7511 111.083 92.7898 110.709 92.7898ZM116.834 92.783C116.451 92.783 116.098 92.7123 115.774 92.571C115.455 92.4252 115.198 92.2087 115.002 91.9216C114.806 91.63 114.708 91.2677 114.708 90.8347C114.708 90.2286 114.893 89.7706 115.262 89.4607C115.635 89.1508 116.157 88.9389 116.827 88.825C117.502 88.711 118.29 88.6472 119.192 88.6335V88.2234C119.192 87.7266 119.069 87.3848 118.823 87.198C118.577 87.0111 118.265 86.9177 117.887 86.9177C117.477 86.9177 117.135 87.018 116.861 87.2185C116.588 87.419 116.451 87.7403 116.451 88.1824H115.05C115.05 87.6264 115.168 87.182 115.405 86.8494C115.647 86.5121 115.979 86.2683 116.403 86.1179C116.832 85.9675 117.326 85.8923 117.887 85.8923C118.265 85.8923 118.62 85.9265 118.953 85.9949C119.286 86.0632 119.577 86.184 119.828 86.3572C120.083 86.5258 120.282 86.7605 120.423 87.0613C120.569 87.3575 120.642 87.738 120.642 88.2029V92.6667H119.261L119.206 91.7302C118.914 92.0583 118.573 92.3158 118.181 92.5027C117.793 92.6895 117.344 92.783 116.834 92.783ZM117.278 91.7302C117.679 91.7302 118.044 91.6322 118.372 91.4363C118.7 91.2403 118.969 91.0011 119.179 90.7185V89.5085C118.094 89.5131 117.324 89.6134 116.868 89.8093C116.412 90.0053 116.185 90.322 116.185 90.7595C116.185 91.0694 116.28 91.3087 116.472 91.4773C116.668 91.6459 116.937 91.7302 117.278 91.7302ZM124.066 92.6667L121.578 86.0017H123.123L124.894 91.2585L126.698 86.0017H128.195L125.728 92.6667H124.066ZM132.01 92.7898C131.281 92.7898 130.672 92.6462 130.185 92.3591C129.701 92.0675 129.339 91.6619 129.098 91.1423C128.856 90.6182 128.735 90.0121 128.735 89.324C128.735 88.6313 128.852 88.0297 129.084 87.5193C129.321 87.0043 129.672 86.6056 130.137 86.323C130.606 86.0359 131.192 85.8923 131.894 85.8923C132.841 85.8923 133.589 86.1749 134.136 86.74C134.683 87.3051 134.956 88.1117 134.956 89.1599C134.956 89.2237 134.951 89.3035 134.942 89.3992C134.938 89.4903 134.931 89.5564 134.922 89.5974H130.212C130.216 89.9757 130.278 90.3243 130.396 90.6433C130.52 90.9578 130.713 91.2107 130.978 91.4021C131.242 91.5935 131.586 91.6892 132.01 91.6892C132.465 91.6892 132.823 91.5889 133.083 91.3884C133.343 91.1833 133.479 90.8826 133.493 90.4861H134.949C134.926 90.9783 134.792 91.3975 134.546 91.7439C134.304 92.0857 133.967 92.3455 133.534 92.5232C133.106 92.7009 132.598 92.7898 132.01 92.7898ZM130.226 88.6062H133.486C133.473 88.0684 133.322 87.6606 133.035 87.3826C132.753 87.1 132.372 86.9587 131.894 86.9587C131.401 86.9587 131.009 87.1 130.718 87.3826C130.431 87.6651 130.267 88.073 130.226 88.6062ZM138.969 92.783C138.449 92.783 137.989 92.6554 137.588 92.4001C137.191 92.1449 136.882 91.7598 136.658 91.2449C136.435 90.7253 136.323 90.0782 136.323 89.3035C136.323 88.5378 136.442 87.9044 136.679 87.4031C136.92 86.8972 137.251 86.519 137.67 86.2683C138.094 86.0131 138.581 85.8855 139.133 85.8855C139.598 85.8855 140.001 85.9858 140.343 86.1863C140.685 86.3868 140.958 86.6534 141.163 86.9861V83.4656H142.64V92.6667H141.238L141.163 91.7097C140.926 92.0333 140.628 92.2931 140.268 92.489C139.908 92.685 139.475 92.783 138.969 92.783ZM139.352 91.6277C139.789 91.6277 140.158 91.5183 140.459 91.2996C140.76 91.0763 140.994 90.8119 141.163 90.5066V88.2439C141.004 87.9112 140.783 87.6287 140.5 87.3962C140.222 87.1593 139.876 87.0408 139.461 87.0408C138.932 87.0408 138.529 87.2367 138.251 87.6287C137.973 88.016 137.834 88.572 137.834 89.2966C137.834 90.0714 137.964 90.6547 138.224 91.0466C138.488 91.434 138.864 91.6277 139.352 91.6277ZM150.467 92.7898C149.738 92.7898 149.129 92.6462 148.642 92.3591C148.159 92.0675 147.796 91.6619 147.555 91.1423C147.313 90.6182 147.192 90.0121 147.192 89.324C147.192 88.6313 147.309 88.0297 147.541 87.5193C147.778 87.0043 148.129 86.6056 148.594 86.323C149.063 86.0359 149.649 85.8923 150.351 85.8923C151.299 85.8923 152.046 86.1749 152.593 86.74C153.14 87.3051 153.413 88.1117 153.413 89.1599C153.413 89.2237 153.409 89.3035 153.399 89.3992C153.395 89.4903 153.388 89.5564 153.379 89.5974H148.669C148.674 89.9757 148.735 90.3243 148.854 90.6433C148.977 90.9578 149.17 91.2107 149.435 91.4021C149.699 91.5935 150.043 91.6892 150.467 91.6892C150.923 91.6892 151.28 91.5889 151.54 91.3884C151.8 91.1833 151.937 90.8826 151.95 90.4861H153.406C153.383 90.9783 153.249 91.3975 153.003 91.7439C152.761 92.0857 152.424 92.3455 151.991 92.5232C151.563 92.7009 151.055 92.7898 150.467 92.7898ZM148.683 88.6062H151.943C151.93 88.0684 151.779 87.6606 151.492 87.3826C151.21 87.1 150.829 86.9587 150.351 86.9587C149.858 86.9587 149.466 87.1 149.175 87.3826C148.888 87.6651 148.724 88.073 148.683 88.6062ZM155.136 92.6667V86.0017H156.558L156.592 87.0134C156.811 86.7354 157.107 86.4825 157.48 86.2546C157.854 86.0222 158.335 85.906 158.923 85.906C159.629 85.906 160.158 86.1179 160.509 86.5417C160.864 86.961 161.042 87.5626 161.042 88.3464V92.6667H159.565V88.5447C159.565 88.2621 159.531 88.0138 159.463 87.7996C159.395 87.5808 159.278 87.4122 159.114 87.2937C158.955 87.1707 158.734 87.1091 158.451 87.1091C158.023 87.1091 157.658 87.2094 157.357 87.4099C157.061 87.6059 156.815 87.8292 156.619 88.0798V92.6667H155.136ZM165.588 92.6667C164.982 92.6667 164.515 92.5847 164.187 92.4207C163.858 92.252 163.631 92.0037 163.503 91.6755C163.38 91.3429 163.318 90.9281 163.318 90.4314V87.1638H162.204V86.0017H163.318V84.45H164.788V86.0017H166.34V87.1638H164.788V90.3425C164.788 90.7253 164.838 91.0147 164.938 91.2107C165.043 91.4067 165.285 91.5046 165.663 91.5046H166.34V92.6667H165.588ZM167.81 92.6667V86.0017H169.218L169.252 87.1433C169.434 86.7742 169.694 86.4779 170.031 86.2546C170.373 86.0268 170.801 85.9128 171.316 85.9128H171.446V87.2048H171.289C170.984 87.2048 170.706 87.239 170.455 87.3074C170.209 87.3712 169.99 87.4714 169.799 87.6082C169.607 87.7403 169.439 87.9067 169.293 88.1072V92.6667H167.81ZM172.731 92.6667V86.0017H174.215V92.6667H172.731ZM173.477 84.9353C173.199 84.9353 172.984 84.8624 172.834 84.7166C172.684 84.5707 172.608 84.3884 172.608 84.1697C172.608 83.9418 172.684 83.755 172.834 83.6091C172.984 83.4633 173.199 83.3904 173.477 83.3904C173.75 83.3904 173.962 83.4633 174.112 83.6091C174.267 83.755 174.345 83.9395 174.345 84.1628C174.345 84.3861 174.267 84.5707 174.112 84.7166C173.962 84.8624 173.75 84.9353 173.477 84.9353ZM179.205 92.7898C178.476 92.7898 177.868 92.6462 177.38 92.3591C176.897 92.0675 176.535 91.6619 176.293 91.1423C176.051 90.6182 175.931 90.0121 175.931 89.324C175.931 88.6313 176.047 88.0297 176.279 87.5193C176.516 87.0043 176.867 86.6056 177.332 86.323C177.801 86.0359 178.387 85.8923 179.089 85.8923C180.037 85.8923 180.784 86.1749 181.331 86.74C181.878 87.3051 182.151 88.1117 182.151 89.1599C182.151 89.2237 182.147 89.3035 182.138 89.3992C182.133 89.4903 182.126 89.5564 182.117 89.5974H177.407C177.412 89.9757 177.473 90.3243 177.592 90.6433C177.715 90.9578 177.909 91.2107 178.173 91.4021C178.437 91.5935 178.781 91.6892 179.205 91.6892C179.661 91.6892 180.019 91.5889 180.278 91.3884C180.538 91.1833 180.675 90.8826 180.688 90.4861H182.145C182.122 90.9783 181.987 91.3975 181.741 91.7439C181.5 92.0857 181.162 92.3455 180.729 92.5232C180.301 92.7009 179.793 92.7898 179.205 92.7898ZM177.421 88.6062H180.682C180.668 88.0684 180.518 87.6606 180.23 87.3826C179.948 87.1 179.567 86.9587 179.089 86.9587C178.597 86.9587 178.205 87.1 177.913 87.3826C177.626 87.6651 177.462 88.073 177.421 88.6062ZM186.328 92.7898C185.954 92.7898 185.594 92.7511 185.248 92.6736C184.906 92.6007 184.599 92.4776 184.325 92.3044C184.056 92.1313 183.842 91.9011 183.683 91.614C183.528 91.3269 183.45 90.9737 183.45 90.5544H184.845C184.845 91.0011 184.991 91.3132 185.282 91.491C185.574 91.6687 185.927 91.7576 186.342 91.7576C186.734 91.7576 187.048 91.6892 187.285 91.5525C187.522 91.4112 187.641 91.1788 187.641 90.8552C187.641 90.5681 187.52 90.3539 187.278 90.2126C187.037 90.0714 186.615 89.9324 186.014 89.7957C185.517 89.6726 185.086 89.5313 184.722 89.3718C184.362 89.2123 184.084 89.0027 183.888 88.7429C183.696 88.4786 183.601 88.1414 183.601 87.7312C183.601 87.4122 183.671 87.1365 183.812 86.9041C183.958 86.6716 184.154 86.4802 184.4 86.3298C184.646 86.1794 184.929 86.0678 185.248 85.9949C185.567 85.922 185.904 85.8855 186.26 85.8855C186.602 85.8855 186.932 85.9242 187.251 86.0017C187.57 86.0746 187.855 86.1954 188.105 86.364C188.356 86.5326 188.554 86.7537 188.7 87.0271C188.846 87.3005 188.919 87.6355 188.919 88.032H187.531C187.531 87.6264 187.406 87.3416 187.155 87.1775C186.905 87.0089 186.606 86.9246 186.26 86.9246C185.895 86.9246 185.604 86.9838 185.385 87.1023C185.171 87.2208 185.063 87.4122 185.063 87.6765C185.063 87.8269 185.12 87.9568 185.234 88.0662C185.348 88.171 185.533 88.269 185.788 88.3601C186.048 88.4467 186.394 88.5401 186.827 88.6404C187.292 88.7498 187.695 88.8865 188.037 89.0505C188.379 89.21 188.641 89.422 188.823 89.6863C189.01 89.946 189.104 90.2856 189.104 90.7048C189.104 91.0785 189.028 91.3975 188.878 91.6619C188.732 91.9262 188.532 92.1427 188.276 92.3113C188.021 92.4753 187.725 92.5961 187.388 92.6736C187.055 92.7511 186.702 92.7898 186.328 92.7898ZM191.667 92.7488C191.366 92.7488 191.12 92.6531 190.929 92.4617C190.737 92.2703 190.642 92.0356 190.642 91.7576C190.642 91.4659 190.737 91.2289 190.929 91.0466C191.12 90.8643 191.366 90.7732 191.667 90.7732C191.968 90.7732 192.212 90.8643 192.398 91.0466C192.585 91.2289 192.679 91.4659 192.679 91.7576C192.679 92.0356 192.585 92.2703 192.398 92.4617C192.212 92.6531 191.968 92.7488 191.667 92.7488ZM197.71 92.6667V83.4656H201.176C201.764 83.4656 202.295 83.575 202.769 83.7937C203.247 84.0079 203.625 84.3292 203.903 84.7576C204.186 85.186 204.327 85.7237 204.327 86.3709C204.327 86.9998 204.186 87.5261 203.903 87.95C203.625 88.3692 203.247 88.686 202.769 88.9001C202.295 89.1098 201.764 89.2146 201.176 89.2146H199.282V92.6667H197.71ZM199.282 87.9363H201.039C201.536 87.9363 201.939 87.8064 202.249 87.5466C202.563 87.2823 202.721 86.8904 202.721 86.3709C202.721 85.8194 202.563 85.4115 202.249 85.1472C201.935 84.8829 201.531 84.7507 201.039 84.7507H199.282V87.9363ZM205.735 92.6667V86.0017H207.144L207.178 87.1433C207.36 86.7742 207.62 86.4779 207.957 86.2546C208.299 86.0268 208.727 85.9128 209.242 85.9128H209.372V87.2048H209.215C208.91 87.2048 208.632 87.239 208.381 87.3074C208.135 87.3712 207.916 87.4714 207.725 87.6082C207.533 87.7403 207.365 87.9067 207.219 88.1072V92.6667H205.735ZM213.398 92.7898C212.669 92.7898 212.061 92.6462 211.573 92.3591C211.09 92.0675 210.728 91.6619 210.486 91.1423C210.245 90.6182 210.124 90.0121 210.124 89.324C210.124 88.6313 210.24 88.0297 210.473 87.5193C210.71 87.0043 211.061 86.6056 211.525 86.323C211.995 86.0359 212.58 85.8923 213.282 85.8923C214.23 85.8923 214.978 86.1749 215.524 86.74C216.071 87.3051 216.345 88.1117 216.345 89.1599C216.345 89.2237 216.34 89.3035 216.331 89.3992C216.326 89.4903 216.32 89.5564 216.311 89.5974H211.601C211.605 89.9757 211.667 90.3243 211.785 90.6433C211.908 90.9578 212.102 91.2107 212.366 91.4021C212.631 91.5935 212.975 91.6892 213.398 91.6892C213.854 91.6892 214.212 91.5889 214.472 91.3884C214.731 91.1833 214.868 90.8826 214.882 90.4861H216.338C216.315 90.9783 216.181 91.3975 215.935 91.7439C215.693 92.0857 215.356 92.3455 214.923 92.5232C214.494 92.7009 213.986 92.7898 213.398 92.7898ZM211.614 88.6062H214.875C214.861 88.0684 214.711 87.6606 214.424 87.3826C214.141 87.1 213.761 86.9587 213.282 86.9587C212.79 86.9587 212.398 87.1 212.106 87.3826C211.819 87.6651 211.655 88.073 211.614 88.6062ZM220.521 92.7898C220.148 92.7898 219.788 92.7511 219.441 92.6736C219.1 92.6007 218.792 92.4776 218.519 92.3044C218.25 92.1313 218.035 91.9011 217.876 91.614C217.721 91.3269 217.644 90.9737 217.644 90.5544H219.038C219.038 91.0011 219.184 91.3132 219.476 91.491C219.767 91.6687 220.12 91.7576 220.535 91.7576C220.927 91.7576 221.242 91.6892 221.479 91.5525C221.715 91.4112 221.834 91.1788 221.834 90.8552C221.834 90.5681 221.713 90.3539 221.472 90.2126C221.23 90.0714 220.809 89.9324 220.207 89.7957C219.71 89.6726 219.28 89.5313 218.915 89.3718C218.555 89.2123 218.277 89.0027 218.081 88.7429C217.89 88.4786 217.794 88.1414 217.794 87.7312C217.794 87.4122 217.865 87.1365 218.006 86.9041C218.152 86.6716 218.348 86.4802 218.594 86.3298C218.84 86.1794 219.122 86.0678 219.441 85.9949C219.76 85.922 220.098 85.8855 220.453 85.8855C220.795 85.8855 221.125 85.9242 221.444 86.0017C221.763 86.0746 222.048 86.1954 222.299 86.364C222.549 86.5326 222.748 86.7537 222.894 87.0271C223.039 87.3005 223.112 87.6355 223.112 88.032H221.725C221.725 87.6264 221.599 87.3416 221.349 87.1775C221.098 87.0089 220.799 86.9246 220.453 86.9246C220.089 86.9246 219.797 86.9838 219.578 87.1023C219.364 87.2208 219.257 87.4122 219.257 87.6765C219.257 87.8269 219.314 87.9568 219.428 88.0662C219.542 88.171 219.726 88.269 219.981 88.3601C220.241 88.4467 220.588 88.5401 221.021 88.6404C221.485 88.7498 221.889 88.8865 222.23 89.0505C222.572 89.21 222.834 89.422 223.017 89.6863C223.203 89.946 223.297 90.2856 223.297 90.7048C223.297 91.0785 223.222 91.3975 223.071 91.6619C222.925 91.9262 222.725 92.1427 222.47 92.3113C222.215 92.4753 221.918 92.5961 221.581 92.6736C221.248 92.7511 220.895 92.7898 220.521 92.7898ZM227.289 92.7898C226.915 92.7898 226.555 92.7511 226.209 92.6736C225.867 92.6007 225.56 92.4776 225.286 92.3044C225.017 92.1313 224.803 91.9011 224.644 91.614C224.489 91.3269 224.411 90.9737 224.411 90.5544H225.806C225.806 91.0011 225.951 91.3132 226.243 91.491C226.535 91.6687 226.888 91.7576 227.303 91.7576C227.695 91.7576 228.009 91.6892 228.246 91.5525C228.483 91.4112 228.602 91.1788 228.602 90.8552C228.602 90.5681 228.481 90.3539 228.239 90.2126C227.998 90.0714 227.576 89.9324 226.975 89.7957C226.478 89.6726 226.047 89.5313 225.683 89.3718C225.323 89.2123 225.045 89.0027 224.849 88.7429C224.657 88.4786 224.562 88.1414 224.562 87.7312C224.562 87.4122 224.632 87.1365 224.773 86.9041C224.919 86.6716 225.115 86.4802 225.361 86.3298C225.607 86.1794 225.89 86.0678 226.209 85.9949C226.528 85.922 226.865 85.8855 227.221 85.8855C227.562 85.8855 227.893 85.9242 228.212 86.0017C228.531 86.0746 228.816 86.1954 229.066 86.364C229.317 86.5326 229.515 86.7537 229.661 87.0271C229.807 87.3005 229.88 87.6355 229.88 88.032H228.492C228.492 87.6264 228.367 87.3416 228.116 87.1775C227.866 87.0089 227.567 86.9246 227.221 86.9246C226.856 86.9246 226.564 86.9838 226.346 87.1023C226.132 87.2208 226.024 87.4122 226.024 87.6765C226.024 87.8269 226.081 87.9568 226.195 88.0662C226.309 88.171 226.494 88.269 226.749 88.3601C227.009 88.4467 227.355 88.5401 227.788 88.6404C228.253 88.7498 228.656 88.8865 228.998 89.0505C229.34 89.21 229.602 89.422 229.784 89.6863C229.971 89.946 230.064 90.2856 230.064 90.7048C230.064 91.0785 229.989 91.3975 229.839 91.6619C229.693 91.9262 229.493 92.1427 229.237 92.3113C228.982 92.4753 228.686 92.5961 228.349 92.6736C228.016 92.7511 227.663 92.7898 227.289 92.7898ZM238.739 92.7898C237.773 92.7898 236.96 92.5938 236.299 92.2019C235.643 91.8054 235.146 91.254 234.809 90.5476C234.471 89.8412 234.303 89.0164 234.303 88.073C234.303 87.1296 234.471 86.3048 234.809 85.5984C235.146 84.8875 235.643 84.3337 236.299 83.9373C236.96 83.5408 237.773 83.3425 238.739 83.3425C239.701 83.3425 240.507 83.5408 241.159 83.9373C241.815 84.3337 242.312 84.8875 242.649 85.5984C242.991 86.3048 243.162 87.1296 243.162 88.073C243.162 89.0164 242.991 89.8412 242.649 90.5476C242.312 91.254 241.815 91.8054 241.159 92.2019C240.507 92.5938 239.701 92.7898 238.739 92.7898ZM238.739 91.491C239.405 91.491 239.942 91.336 240.353 91.0261C240.763 90.7162 241.063 90.3038 241.255 89.7888C241.446 89.2693 241.542 88.6973 241.542 88.073C241.542 87.4395 241.446 86.8653 241.255 86.3503C241.063 85.8308 240.763 85.4184 240.353 85.113C239.942 84.8031 239.405 84.6482 238.739 84.6482C238.069 84.6482 237.527 84.8031 237.112 85.113C236.698 85.4184 236.397 85.8308 236.21 86.3503C236.023 86.8653 235.93 87.4395 235.93 88.073C235.93 88.6973 236.023 89.2693 236.21 89.7888C236.397 90.3038 236.698 90.7162 237.112 91.0261C237.527 91.336 238.069 91.491 238.739 91.491ZM244.919 92.6667V83.4656H246.402V89.1052L249.205 86.0017H250.859L248.036 89.0916L251.092 92.6667H249.355L246.402 89.1736V92.6667H244.919ZM253.662 92.783C253.279 92.783 252.926 92.7123 252.603 92.571C252.284 92.4252 252.026 92.2087 251.83 91.9216C251.634 91.63 251.536 91.2677 251.536 90.8347C251.536 90.2286 251.721 89.7706 252.09 89.4607C252.464 89.1508 252.985 88.9389 253.655 88.825C254.33 88.711 255.118 88.6472 256.021 88.6335V88.2234C256.021 87.7266 255.897 87.3848 255.651 87.198C255.405 87.0111 255.093 86.9177 254.715 86.9177C254.305 86.9177 253.963 87.018 253.689 87.2185C253.416 87.419 253.279 87.7403 253.279 88.1824H251.878C251.878 87.6264 251.996 87.182 252.233 86.8494C252.475 86.5121 252.808 86.2683 253.231 86.1179C253.66 85.9675 254.154 85.8923 254.715 85.8923C255.093 85.8923 255.449 85.9265 255.781 85.9949C256.114 86.0632 256.406 86.184 256.656 86.3572C256.911 86.5258 257.11 86.7605 257.251 87.0613C257.397 87.3575 257.47 87.738 257.47 88.2029V92.6667H256.089L256.034 91.7302C255.743 92.0583 255.401 92.3158 255.009 92.5027C254.621 92.6895 254.173 92.783 253.662 92.783ZM254.106 91.7302C254.507 91.7302 254.872 91.6322 255.2 91.4363C255.528 91.2403 255.797 91.0011 256.007 90.7185V89.5085C254.922 89.5131 254.152 89.6134 253.696 89.8093C253.241 90.0053 253.013 90.322 253.013 90.7595C253.013 91.0694 253.108 91.3087 253.3 91.4773C253.496 91.6459 253.765 91.7302 254.106 91.7302ZM259.151 95.114V93.9041H259.739C260.004 93.9041 260.225 93.8448 260.402 93.7263C260.58 93.6124 260.724 93.421 260.833 93.1521L261.031 92.6667L258.406 86.0017H259.951L261.824 91.1902L263.526 86.0017H265.023L262.576 92.6667L262.296 93.3982C262.132 93.8357 261.95 94.1775 261.749 94.4236C261.549 94.6742 261.3 94.852 261.004 94.9568C260.712 95.0616 260.345 95.114 259.903 95.114H259.151ZM271.436 92.6667C270.829 92.6667 270.362 92.5847 270.034 92.4207C269.706 92.252 269.478 92.0037 269.351 91.6755C269.228 91.3429 269.166 90.9281 269.166 90.4314V87.1638H268.052V86.0017H269.166V84.45H270.636V86.0017H272.187V87.1638H270.636V90.3425C270.636 90.7253 270.686 91.0147 270.786 91.2107C270.891 91.4067 271.132 91.5046 271.511 91.5046H272.187V92.6667H271.436ZM276.467 92.7761C275.806 92.7761 275.232 92.6417 274.744 92.3728C274.261 92.0994 273.887 91.7074 273.623 91.197C273.363 90.682 273.233 90.0668 273.233 89.3513C273.233 88.6222 273.363 87.9978 273.623 87.4783C273.887 86.9587 274.261 86.5623 274.744 86.2888C275.232 86.0154 275.806 85.8787 276.467 85.8787C277.146 85.8787 277.729 86.0154 278.217 86.2888C278.709 86.5623 279.087 86.9587 279.352 87.4783C279.62 87.9978 279.755 88.6222 279.755 89.3513C279.755 90.0668 279.62 90.682 279.352 91.197C279.087 91.7074 278.709 92.0994 278.217 92.3728C277.729 92.6417 277.146 92.7761 276.467 92.7761ZM276.467 91.6277C276.913 91.6277 277.267 91.5274 277.526 91.3269C277.786 91.1264 277.971 90.8552 278.08 90.5134C278.189 90.1671 278.244 89.7797 278.244 89.3513C278.244 88.9138 278.189 88.5196 278.08 88.1687C277.971 87.8178 277.786 87.5421 277.526 87.3416C277.267 87.1365 276.913 87.0339 276.467 87.0339C276.038 87.0339 275.699 87.1365 275.448 87.3416C275.198 87.5421 275.018 87.8178 274.908 88.1687C274.799 88.5196 274.744 88.9138 274.744 89.3513C274.744 89.7797 274.799 90.1671 274.908 90.5134C275.018 90.8552 275.198 91.1264 275.448 91.3269C275.699 91.5274 276.038 91.6277 276.467 91.6277ZM59.7744 109.769C59.1592 109.769 58.61 109.649 58.127 109.407C57.6439 109.161 57.2611 108.785 56.9785 108.279C56.7005 107.773 56.5615 107.133 56.5615 106.358C56.5615 105.579 56.696 104.934 56.9649 104.424C57.2383 103.909 57.6143 103.526 58.0928 103.275C58.5759 103.02 59.1364 102.892 59.7744 102.892C60.3122 102.892 60.7975 102.981 61.2305 103.159C61.6634 103.337 62.0075 103.603 62.2627 103.959C62.5225 104.314 62.6592 104.763 62.6729 105.305H61.2305C61.2077 104.918 61.071 104.613 60.8203 104.389C60.5697 104.166 60.2256 104.054 59.7881 104.054C59.2002 104.054 58.7673 104.257 58.4893 104.663C58.2113 105.064 58.0723 105.629 58.0723 106.358C58.0723 106.832 58.1338 107.238 58.2568 107.575C58.3799 107.912 58.5667 108.17 58.8174 108.347C59.0726 108.525 59.3962 108.614 59.7881 108.614C60.2347 108.614 60.5925 108.496 60.8613 108.259C61.1302 108.022 61.2715 107.68 61.2852 107.233H62.7275C62.7139 107.789 62.5772 108.256 62.3174 108.635C62.0576 109.013 61.7067 109.298 61.2647 109.489C60.8272 109.676 60.3304 109.769 59.7744 109.769ZM67.3145 109.776C66.6537 109.776 66.0794 109.642 65.5918 109.373C65.1087 109.099 64.735 108.707 64.4707 108.197C64.2109 107.682 64.0811 107.067 64.0811 106.351C64.0811 105.622 64.2109 104.998 64.4707 104.478C64.735 103.959 65.1087 103.562 65.5918 103.289C66.0794 103.015 66.6537 102.879 67.3145 102.879C67.9935 102.879 68.5768 103.015 69.0645 103.289C69.5566 103.562 69.9349 103.959 70.1992 104.478C70.4681 104.998 70.6025 105.622 70.6025 106.351C70.6025 107.067 70.4681 107.682 70.1992 108.197C69.9349 108.707 69.5566 109.099 69.0645 109.373C68.5768 109.642 67.9935 109.776 67.3145 109.776ZM67.3145 108.628C67.7611 108.628 68.1143 108.527 68.374 108.327C68.6338 108.126 68.8184 107.855 68.9277 107.513C69.0371 107.167 69.0918 106.78 69.0918 106.351C69.0918 105.914 69.0371 105.52 68.9277 105.169C68.8184 104.818 68.6338 104.542 68.374 104.342C68.1143 104.136 67.7611 104.034 67.3145 104.034C66.8861 104.034 66.5466 104.136 66.2959 104.342C66.0453 104.542 65.8652 104.818 65.7559 105.169C65.6465 105.52 65.5918 105.914 65.5918 106.351C65.5918 106.78 65.6465 107.167 65.7559 107.513C65.8652 107.855 66.0453 108.126 66.2959 108.327C66.5466 108.527 66.8861 108.628 67.3145 108.628ZM72.3115 109.667V103.002H73.7334L73.7676 104.013C73.9863 103.735 74.2826 103.483 74.6563 103.255C75.03 103.022 75.5107 102.906 76.0986 102.906C76.805 102.906 77.3337 103.118 77.6846 103.542C78.04 103.961 78.2178 104.563 78.2178 105.346V109.667H76.7412V105.545C76.7412 105.262 76.707 105.014 76.6387 104.8C76.5703 104.581 76.4541 104.412 76.29 104.294C76.1305 104.171 75.9095 104.109 75.627 104.109C75.1986 104.109 74.834 104.209 74.5332 104.41C74.237 104.606 73.9909 104.829 73.7949 105.08V109.667H72.3115ZM82.7637 109.667C82.1576 109.667 81.6904 109.585 81.3623 109.421C81.0342 109.252 80.8063 109.004 80.6787 108.676C80.5557 108.343 80.4941 107.928 80.4941 107.431V104.164H79.3799V103.002H80.4941V101.45H81.9639V103.002H83.5156V104.164H81.9639V107.343C81.9639 107.725 82.014 108.015 82.1143 108.211C82.2191 108.407 82.4606 108.505 82.8389 108.505H83.5156V109.667H82.7637ZM84.9854 109.667V103.002H86.4688V109.667H84.9854ZM85.7305 101.935C85.4525 101.935 85.2383 101.862 85.0879 101.717C84.9375 101.571 84.8623 101.388 84.8623 101.17C84.8623 100.942 84.9375 100.755 85.0879 100.609C85.2383 100.463 85.4525 100.39 85.7305 100.39C86.0039 100.39 86.2158 100.463 86.3662 100.609C86.5212 100.755 86.5986 100.94 86.5986 101.163C86.5986 101.386 86.5212 101.571 86.3662 101.717C86.2158 101.862 86.0039 101.935 85.7305 101.935ZM88.54 109.667V103.002H89.9619L89.9961 104.013C90.2149 103.735 90.5111 103.483 90.8848 103.255C91.2585 103.022 91.7393 102.906 92.3272 102.906C93.0335 102.906 93.5622 103.118 93.9131 103.542C94.2686 103.961 94.4463 104.563 94.4463 105.346V109.667H92.9697V105.545C92.9697 105.262 92.9356 105.014 92.8672 104.8C92.7988 104.581 92.6826 104.412 92.5186 104.294C92.3591 104.171 92.138 104.109 91.8555 104.109C91.4271 104.109 91.0625 104.209 90.7617 104.41C90.4655 104.606 90.2194 104.829 90.0234 105.08V109.667H88.54ZM98.5479 109.762C97.8232 109.762 97.2832 109.551 96.9277 109.127C96.5723 108.703 96.3945 108.11 96.3945 107.349V103.002H97.8711V107.165C97.8711 107.429 97.9053 107.664 97.9736 107.869C98.042 108.074 98.1628 108.236 98.3359 108.354C98.5091 108.468 98.7484 108.525 99.0537 108.525C99.4821 108.525 99.8444 108.434 100.141 108.252C100.441 108.065 100.692 107.844 100.893 107.589V103.002H102.369V109.667H100.94L100.913 108.648C100.694 108.926 100.391 109.181 100.004 109.414C99.6165 109.646 99.1312 109.762 98.5479 109.762ZM107.359 109.79C106.63 109.79 106.022 109.646 105.534 109.359C105.051 109.067 104.689 108.662 104.447 108.142C104.206 107.618 104.085 107.012 104.085 106.324C104.085 105.631 104.201 105.03 104.434 104.519C104.671 104.004 105.021 103.606 105.486 103.323C105.956 103.036 106.541 102.892 107.243 102.892C108.191 102.892 108.938 103.175 109.485 103.74C110.032 104.305 110.306 105.112 110.306 106.16C110.306 106.224 110.301 106.303 110.292 106.399C110.287 106.49 110.281 106.556 110.271 106.597H105.562C105.566 106.976 105.628 107.324 105.746 107.643C105.869 107.958 106.063 108.211 106.327 108.402C106.591 108.594 106.936 108.689 107.359 108.689C107.815 108.689 108.173 108.589 108.433 108.388C108.692 108.183 108.829 107.883 108.843 107.486H110.299C110.276 107.978 110.142 108.398 109.896 108.744C109.654 109.086 109.317 109.345 108.884 109.523C108.455 109.701 107.947 109.79 107.359 109.79ZM105.575 105.606H108.836C108.822 105.068 108.672 104.661 108.385 104.383C108.102 104.1 107.722 103.959 107.243 103.959C106.751 103.959 106.359 104.1 106.067 104.383C105.78 104.665 105.616 105.073 105.575 105.606ZM117.791 109.79C117.062 109.79 116.453 109.646 115.966 109.359C115.483 109.067 115.12 108.662 114.879 108.142C114.637 107.618 114.517 107.012 114.517 106.324C114.517 105.631 114.633 105.03 114.865 104.519C115.102 104.004 115.453 103.606 115.918 103.323C116.387 103.036 116.973 102.892 117.675 102.892C118.623 102.892 119.37 103.175 119.917 103.74C120.464 104.305 120.737 105.112 120.737 106.16C120.737 106.224 120.733 106.303 120.724 106.399C120.719 106.49 120.712 106.556 120.703 106.597H115.993C115.998 106.976 116.059 107.324 116.178 107.643C116.301 107.958 116.494 108.211 116.759 108.402C117.023 108.594 117.367 108.689 117.791 108.689C118.247 108.689 118.604 108.589 118.864 108.388C119.124 108.183 119.261 107.883 119.274 107.486H120.73C120.708 107.978 120.573 108.398 120.327 108.744C120.086 109.086 119.748 109.345 119.315 109.523C118.887 109.701 118.379 109.79 117.791 109.79ZM116.007 105.606H119.268C119.254 105.068 119.104 104.661 118.816 104.383C118.534 104.1 118.153 103.959 117.675 103.959C117.183 103.959 116.791 104.1 116.499 104.383C116.212 104.665 116.048 105.073 116.007 105.606ZM124.675 109.667C124.064 109.667 123.592 109.585 123.26 109.421C122.932 109.252 122.704 109.004 122.576 108.676C122.453 108.343 122.392 107.928 122.392 107.431V100.466H123.868V107.343C123.868 107.725 123.918 108.015 124.019 108.211C124.119 108.402 124.358 108.498 124.736 108.498H125.099V109.667H124.675ZM128.879 109.79C128.505 109.79 128.145 109.751 127.799 109.674C127.457 109.601 127.149 109.478 126.876 109.304C126.607 109.131 126.393 108.901 126.233 108.614C126.078 108.327 126.001 107.974 126.001 107.554H127.396C127.396 108.001 127.541 108.313 127.833 108.491C128.125 108.669 128.478 108.758 128.893 108.758C129.285 108.758 129.599 108.689 129.836 108.552C130.073 108.411 130.191 108.179 130.191 107.855C130.191 107.568 130.071 107.354 129.829 107.213C129.588 107.071 129.166 106.932 128.564 106.796C128.068 106.673 127.637 106.531 127.272 106.372C126.912 106.212 126.634 106.003 126.438 105.743C126.247 105.479 126.151 105.141 126.151 104.731C126.151 104.412 126.222 104.136 126.363 103.904C126.509 103.672 126.705 103.48 126.951 103.33C127.197 103.179 127.48 103.068 127.799 102.995C128.118 102.922 128.455 102.885 128.811 102.885C129.152 102.885 129.483 102.924 129.802 103.002C130.121 103.075 130.406 103.195 130.656 103.364C130.907 103.533 131.105 103.754 131.251 104.027C131.397 104.301 131.47 104.635 131.47 105.032H130.082C130.082 104.626 129.957 104.342 129.706 104.177C129.455 104.009 129.157 103.925 128.811 103.925C128.446 103.925 128.154 103.984 127.936 104.102C127.721 104.221 127.614 104.412 127.614 104.677C127.614 104.827 127.671 104.957 127.785 105.066C127.899 105.171 128.084 105.269 128.339 105.36C128.599 105.447 128.945 105.54 129.378 105.64C129.843 105.75 130.246 105.886 130.588 106.051C130.93 106.21 131.192 106.422 131.374 106.686C131.561 106.946 131.654 107.286 131.654 107.705C131.654 108.079 131.579 108.398 131.429 108.662C131.283 108.926 131.082 109.143 130.827 109.311C130.572 109.475 130.276 109.596 129.938 109.674C129.606 109.751 129.253 109.79 128.879 109.79ZM136.18 109.79C135.451 109.79 134.842 109.646 134.354 109.359C133.871 109.067 133.509 108.662 133.268 108.142C133.026 107.618 132.905 107.012 132.905 106.324C132.905 105.631 133.021 105.03 133.254 104.519C133.491 104.004 133.842 103.606 134.307 103.323C134.776 103.036 135.362 102.892 136.063 102.892C137.011 102.892 137.759 103.175 138.306 103.74C138.853 104.305 139.126 105.112 139.126 106.16C139.126 106.224 139.121 106.303 139.112 106.399C139.108 106.49 139.101 106.556 139.092 106.597H134.382C134.386 106.976 134.448 107.324 134.566 107.643C134.689 107.958 134.883 108.211 135.147 108.402C135.412 108.594 135.756 108.689 136.18 108.689C136.635 108.689 136.993 108.589 137.253 108.388C137.513 108.183 137.649 107.883 137.663 107.486H139.119C139.096 107.978 138.962 108.398 138.716 108.744C138.474 109.086 138.137 109.345 137.704 109.523C137.276 109.701 136.768 109.79 136.18 109.79ZM134.396 105.606H137.656C137.643 105.068 137.492 104.661 137.205 104.383C136.923 104.1 136.542 103.959 136.063 103.959C135.571 103.959 135.179 104.1 134.888 104.383C134.601 104.665 134.437 105.073 134.396 105.606ZM146.55 109.769C145.935 109.769 145.385 109.649 144.902 109.407C144.419 109.161 144.036 108.785 143.754 108.279C143.476 107.773 143.337 107.133 143.337 106.358C143.337 105.579 143.471 104.934 143.74 104.424C144.014 103.909 144.39 103.526 144.868 103.275C145.351 103.02 145.912 102.892 146.55 102.892C147.088 102.892 147.573 102.981 148.006 103.159C148.439 103.337 148.783 103.603 149.038 103.959C149.298 104.314 149.435 104.763 149.448 105.305H148.006C147.983 104.918 147.846 104.613 147.596 104.389C147.345 104.166 147.001 104.054 146.563 104.054C145.976 104.054 145.543 104.257 145.265 104.663C144.987 105.064 144.848 105.629 144.848 106.358C144.848 106.832 144.909 107.238 145.032 107.575C145.155 107.912 145.342 108.17 145.593 108.347C145.848 108.525 146.172 108.614 146.563 108.614C147.01 108.614 147.368 108.496 147.637 108.259C147.906 108.022 148.047 107.68 148.061 107.233H149.503C149.489 107.789 149.353 108.256 149.093 108.635C148.833 109.013 148.482 109.298 148.04 109.489C147.603 109.676 147.106 109.769 146.55 109.769ZM152.873 109.783C152.49 109.783 152.137 109.712 151.813 109.571C151.494 109.425 151.237 109.209 151.041 108.922C150.845 108.63 150.747 108.268 150.747 107.835C150.747 107.229 150.932 106.771 151.301 106.461C151.674 106.151 152.196 105.939 152.866 105.825C153.541 105.711 154.329 105.647 155.231 105.634V105.223C155.231 104.727 155.108 104.385 154.862 104.198C154.616 104.011 154.304 103.918 153.926 103.918C153.516 103.918 153.174 104.018 152.9 104.219C152.627 104.419 152.49 104.74 152.49 105.182H151.089C151.089 104.626 151.207 104.182 151.444 103.849C151.686 103.512 152.019 103.268 152.442 103.118C152.871 102.968 153.365 102.892 153.926 102.892C154.304 102.892 154.66 102.927 154.992 102.995C155.325 103.063 155.617 103.184 155.867 103.357C156.122 103.526 156.321 103.76 156.462 104.061C156.608 104.358 156.681 104.738 156.681 105.203V109.667H155.3L155.245 108.73C154.953 109.058 154.612 109.316 154.22 109.503C153.832 109.69 153.383 109.783 152.873 109.783ZM153.317 108.73C153.718 108.73 154.083 108.632 154.411 108.436C154.739 108.24 155.008 108.001 155.218 107.719V106.509C154.133 106.513 153.363 106.613 152.907 106.809C152.451 107.005 152.224 107.322 152.224 107.76C152.224 108.069 152.319 108.309 152.511 108.477C152.707 108.646 152.976 108.73 153.317 108.73ZM158.69 109.667V103.002H160.112L160.146 104.013C160.365 103.735 160.661 103.483 161.035 103.255C161.409 103.022 161.89 102.906 162.478 102.906C163.184 102.906 163.713 103.118 164.063 103.542C164.419 103.961 164.597 104.563 164.597 105.346V109.667H163.12V105.545C163.12 105.262 163.086 105.014 163.018 104.8C162.949 104.581 162.833 104.412 162.669 104.294C162.509 104.171 162.288 104.109 162.006 104.109C161.577 104.109 161.213 104.209 160.912 104.41C160.616 104.606 160.37 104.829 160.174 105.08V109.667H158.69ZM169.464 109.769C168.849 109.769 168.299 109.649 167.816 109.407C167.333 109.161 166.951 108.785 166.668 108.279C166.39 107.773 166.251 107.133 166.251 106.358C166.251 105.579 166.385 104.934 166.654 104.424C166.928 103.909 167.304 103.526 167.782 103.275C168.265 103.02 168.826 102.892 169.464 102.892C170.002 102.892 170.487 102.981 170.92 103.159C171.353 103.337 171.697 103.603 171.952 103.959C172.212 104.314 172.349 104.763 172.362 105.305H170.92C170.897 104.918 170.76 104.613 170.51 104.389C170.259 104.166 169.915 104.054 169.478 104.054C168.89 104.054 168.457 104.257 168.179 104.663C167.901 105.064 167.762 105.629 167.762 106.358C167.762 106.832 167.823 107.238 167.946 107.575C168.069 107.912 168.256 108.17 168.507 108.347C168.762 108.525 169.086 108.614 169.478 108.614C169.924 108.614 170.282 108.496 170.551 108.259C170.82 108.022 170.961 107.68 170.975 107.233H172.417C172.403 107.789 172.267 108.256 172.007 108.635C171.747 109.013 171.396 109.298 170.954 109.489C170.517 109.676 170.02 109.769 169.464 109.769ZM177.045 109.79C176.316 109.79 175.707 109.646 175.22 109.359C174.737 109.067 174.374 108.662 174.133 108.142C173.891 107.618 173.771 107.012 173.771 106.324C173.771 105.631 173.887 105.03 174.119 104.519C174.356 104.004 174.707 103.606 175.172 103.323C175.641 103.036 176.227 102.892 176.929 102.892C177.877 102.892 178.624 103.175 179.171 103.74C179.718 104.305 179.991 105.112 179.991 106.16C179.991 106.224 179.987 106.303 179.978 106.399C179.973 106.49 179.966 106.556 179.957 106.597H175.247C175.252 106.976 175.313 107.324 175.432 107.643C175.555 107.958 175.748 108.211 176.013 108.402C176.277 108.594 176.621 108.689 177.045 108.689C177.501 108.689 177.858 108.589 178.118 108.388C178.378 108.183 178.515 107.883 178.528 107.486H179.984C179.962 107.978 179.827 108.398 179.581 108.744C179.34 109.086 179.002 109.345 178.569 109.523C178.141 109.701 177.633 109.79 177.045 109.79ZM175.261 105.606H178.521C178.508 105.068 178.357 104.661 178.07 104.383C177.788 104.1 177.407 103.959 176.929 103.959C176.437 103.959 176.045 104.1 175.753 104.383C175.466 104.665 175.302 105.073 175.261 105.606ZM183.929 109.667C183.318 109.667 182.846 109.585 182.514 109.421C182.186 109.252 181.958 109.004 181.83 108.676C181.707 108.343 181.646 107.928 181.646 107.431V100.466H183.122V107.343C183.122 107.725 183.172 108.015 183.272 108.211C183.373 108.402 183.612 108.498 183.99 108.498H184.353V109.667H183.929ZM190.669 109.667C190.058 109.667 189.587 109.585 189.254 109.421C188.926 109.252 188.698 109.004 188.57 108.676C188.447 108.343 188.386 107.928 188.386 107.431V100.466H189.862V107.343C189.862 107.725 189.912 108.015 190.013 108.211C190.113 108.402 190.352 108.498 190.73 108.498H191.093V109.667H190.669ZM195.229 109.776C194.568 109.776 193.993 109.642 193.506 109.373C193.023 109.099 192.649 108.707 192.385 108.197C192.125 107.682 191.995 107.067 191.995 106.351C191.995 105.622 192.125 104.998 192.385 104.478C192.649 103.959 193.023 103.562 193.506 103.289C193.993 103.015 194.568 102.879 195.229 102.879C195.908 102.879 196.491 103.015 196.979 103.289C197.471 103.562 197.849 103.959 198.113 104.478C198.382 104.998 198.517 105.622 198.517 106.351C198.517 107.067 198.382 107.682 198.113 108.197C197.849 108.707 197.471 109.099 196.979 109.373C196.491 109.642 195.908 109.776 195.229 109.776ZM195.229 108.628C195.675 108.628 196.028 108.527 196.288 108.327C196.548 108.126 196.732 107.855 196.842 107.513C196.951 107.167 197.006 106.78 197.006 106.351C197.006 105.914 196.951 105.52 196.842 105.169C196.732 104.818 196.548 104.542 196.288 104.342C196.028 104.136 195.675 104.034 195.229 104.034C194.8 104.034 194.461 104.136 194.21 104.342C193.959 104.542 193.779 104.818 193.67 105.169C193.561 105.52 193.506 105.914 193.506 106.351C193.506 106.78 193.561 107.167 193.67 107.513C193.779 107.855 193.959 108.126 194.21 108.327C194.461 108.527 194.8 108.628 195.229 108.628ZM202.7 112.244C201.944 112.244 201.34 112.162 200.889 111.998C200.437 111.834 200.112 111.615 199.911 111.342C199.715 111.073 199.617 110.783 199.617 110.473C199.617 110.091 199.79 109.753 200.137 109.462C200.483 109.165 201.023 108.958 201.757 108.84L202.01 108.327H202.885C203.988 108.327 204.783 108.477 205.271 108.778C205.758 109.074 206.002 109.532 206.002 110.152C206.002 110.772 205.722 111.275 205.161 111.663C204.601 112.05 203.78 112.244 202.7 112.244ZM202.673 111.26C203.366 111.26 203.853 111.166 204.136 110.979C204.423 110.792 204.566 110.56 204.566 110.282C204.566 110.113 204.516 109.968 204.416 109.844C204.32 109.726 204.149 109.635 203.903 109.571C203.662 109.503 203.322 109.469 202.885 109.469H201.777C201.531 109.541 201.338 109.655 201.196 109.81C201.06 109.97 200.991 110.152 200.991 110.357C200.991 110.59 201.121 110.797 201.381 110.979C201.645 111.166 202.076 111.26 202.673 111.26ZM201.757 109.4C201.301 109.35 200.937 109.257 200.663 109.12C200.394 108.983 200.198 108.828 200.075 108.655C199.957 108.477 199.897 108.306 199.897 108.142C199.897 107.887 199.995 107.664 200.191 107.472C200.387 107.276 200.695 107.11 201.114 106.973L201.866 107.322C201.625 107.381 201.426 107.459 201.271 107.554C201.121 107.65 201.046 107.762 201.046 107.889C201.046 107.981 201.091 108.058 201.183 108.122C201.274 108.186 201.431 108.236 201.654 108.272C201.878 108.309 202.187 108.327 202.584 108.327L201.757 109.4ZM202.598 107.527C202.023 107.527 201.534 107.422 201.128 107.213C200.727 106.998 200.422 106.718 200.212 106.372C200.007 106.021 199.904 105.643 199.904 105.237C199.904 104.813 200.009 104.428 200.219 104.082C200.428 103.731 200.736 103.453 201.142 103.248C201.552 103.038 202.051 102.933 202.639 102.933C203.24 102.933 203.739 103.038 204.136 103.248C204.532 103.453 204.828 103.731 205.024 104.082C205.225 104.428 205.325 104.813 205.325 105.237C205.325 105.652 205.223 106.035 205.018 106.385C204.817 106.732 204.516 107.01 204.115 107.219C203.714 107.425 203.208 107.527 202.598 107.527ZM202.591 106.597C202.983 106.597 203.306 106.483 203.562 106.256C203.817 106.023 203.944 105.684 203.944 105.237C203.944 104.772 203.824 104.426 203.582 104.198C203.34 103.97 203.026 103.856 202.639 103.856C202.251 103.856 201.93 103.975 201.675 104.212C201.424 104.444 201.299 104.786 201.299 105.237C201.299 105.688 201.429 106.028 201.688 106.256C201.953 106.483 202.254 106.597 202.591 106.597ZM204.416 103.808L203.924 103.248C204.106 102.797 204.37 102.489 204.717 102.325C205.063 102.161 205.492 102.077 206.002 102.072V103.214C205.665 103.214 205.355 103.248 205.072 103.316C204.794 103.38 204.576 103.544 204.416 103.808ZM206.754 106.919V105.64H210.343V106.919H206.754ZM215.135 109.776C214.474 109.776 213.9 109.642 213.412 109.373C212.929 109.099 212.555 108.707 212.291 108.197C212.031 107.682 211.901 107.067 211.901 106.351C211.901 105.622 212.031 104.998 212.291 104.478C212.555 103.959 212.929 103.562 213.412 103.289C213.9 103.015 214.474 102.879 215.135 102.879C215.814 102.879 216.397 103.015 216.885 103.289C217.377 103.562 217.755 103.959 218.02 104.478C218.288 104.998 218.423 105.622 218.423 106.351C218.423 107.067 218.288 107.682 218.02 108.197C217.755 108.707 217.377 109.099 216.885 109.373C216.397 109.642 215.814 109.776 215.135 109.776ZM215.135 108.628C215.581 108.628 215.935 108.527 216.194 108.327C216.454 108.126 216.639 107.855 216.748 107.513C216.857 107.167 216.912 106.78 216.912 106.351C216.912 105.914 216.857 105.52 216.748 105.169C216.639 104.818 216.454 104.542 216.194 104.342C215.935 104.136 215.581 104.034 215.135 104.034C214.706 104.034 214.367 104.136 214.116 104.342C213.866 104.542 213.686 104.818 213.576 105.169C213.467 105.52 213.412 105.914 213.412 106.351C213.412 106.78 213.467 107.167 213.576 107.513C213.686 107.855 213.866 108.126 214.116 108.327C214.367 108.527 214.706 108.628 215.135 108.628ZM220.398 109.667V104.164H219.284V103.002H220.398V102.708C220.398 102.334 220.43 102.008 220.494 101.73C220.562 101.448 220.679 101.213 220.843 101.026C221.011 100.839 221.242 100.7 221.533 100.609C221.829 100.513 222.208 100.466 222.668 100.466H223.352V101.573H222.743C222.365 101.573 222.123 101.669 222.019 101.86C221.918 102.047 221.868 102.332 221.868 102.715V103.002H223.358V104.164H221.868V109.667H220.398ZM224.855 109.667V104.164H223.741V103.002H224.855V102.708C224.855 102.334 224.887 102.008 224.951 101.73C225.02 101.448 225.136 101.213 225.3 101.026C225.468 100.839 225.699 100.7 225.99 100.609C226.286 100.513 226.665 100.466 227.125 100.466H227.809V101.573H227.2C226.822 101.573 226.58 101.669 226.476 101.86C226.375 102.047 226.325 102.332 226.325 102.715V103.002H227.815V104.164H226.325V109.667H224.855ZM230.071 109.749C229.771 109.749 229.524 109.653 229.333 109.462C229.142 109.27 229.046 109.036 229.046 108.758C229.046 108.466 229.142 108.229 229.333 108.047C229.524 107.864 229.771 107.773 230.071 107.773C230.372 107.773 230.616 107.864 230.803 108.047C230.99 108.229 231.083 108.466 231.083 108.758C231.083 109.036 230.99 109.27 230.803 109.462C230.616 109.653 230.372 109.749 230.071 109.749Z" fill="#585A61"/>
</svg>
