<svg width="17" height="21" viewBox="0 0 17 21" fill="none" xmlns="http://www.w3.org/2000/svg">
<path d="M4.30762 16.4895H12.693V14.927H4.30762V16.4895ZM4.30762 12.0624H12.693V10.4999H4.30762V12.0624ZM1.72949 20.9166C1.31283 20.9166 0.948242 20.7603 0.635742 20.4478C0.323242 20.1353 0.166992 19.7708 0.166992 19.3541V1.64575C0.166992 1.22909 0.323242 0.864502 0.635742 0.552002C0.948242 0.239502 1.31283 0.083252 1.72949 0.083252H11.1305L16.8337 5.78638V19.3541C16.8337 19.7708 16.6774 20.1353 16.3649 20.4478C16.0524 20.7603 15.6878 20.9166 15.2712 20.9166H1.72949ZM10.3493 6.4895V1.64575H1.72949V19.3541H15.2712V6.4895H10.3493Z" fill="white"/>
</svg>
